STARTFONT 2.1
FONT -FontForge-Arial Narrow-Bold-R-Normal--16-150-75-75-P-82-ISO10646-1
SIZE 15 75 75
FONTBOUNDINGBOX 18 23 -2 -5
COMMENT "Generated by fontforge, http://fontforge.sourceforge.net"
COMMENT "(c) 2008 The Monotype Corporation. All Rights Reserved."
STARTPROPERTIES 40
FOUNDRY "FontForge"
FAMILY_NAME "Arial Narrow"
WEIGHT_NAME "Bold"
SLANT "R"
SETWIDTH_NAME "Normal"
ADD_STYLE_NAME ""
PIXEL_SIZE 16
POINT_SIZE 150
RESOLUTION_X 75
RESOLUTION_Y 75
SPACING "P"
AVERAGE_WIDTH 82
CHARSET_REGISTRY "ISO10646"
CHARSET_ENCODING "1"
FONTNAME_REGISTRY ""
CHARSET_COLLECTIONS "ASCII ISOLatin1Encoding ISO8859-2 ISO8859-5 ISO8859-7 ISO8859-9 ISO8859-4 ISO10646-1"
FONT_NAME "ArialNarrow-Bold"
FACE_NAME "Arial Narrow Bold"
COPYRIGHT "(c) 2008 The Monotype Corporation. All Rights Reserved."
FONT_VERSION "2.40"
FONT_ASCENT 13
FONT_DESCENT 3
UNDERLINE_POSITION -2
UNDERLINE_THICKNESS 2
X_HEIGHT 7
CAP_HEIGHT 10
RAW_ASCENT 799
RAW_DESCENT 200
NORM_SPACE 4
RELATIVE_WEIGHT 70
RELATIVE_SETWIDTH 30
SUPERSCRIPT_X 0
SUPERSCRIPT_Y 4
SUPERSCRIPT_SIZE 10
SUBSCRIPT_X 0
SUBSCRIPT_Y 1
SUBSCRIPT_SIZE 10
FIGURE_WIDTH 7
AVG_LOWERCASE_WIDTH 73
AVG_UPPERCASE_WIDTH 90
ENDPROPERTIES
CHARS 667
STARTCHAR .null
ENCODING 0
SWIDTH 0 0
DWIDTH 0 0
BBX 1 1 0 0
BITMAP
00
ENDCHAR
STARTCHAR nonmarkingreturn
ENCODING 13
SWIDTH 228 0
DWIDTH 4 0
BBX 1 1 0 0
BITMAP
00
ENDCHAR
STARTCHAR space
ENCODING 32
SWIDTH 228 0
DWIDTH 4 0
BBX 1 1 0 0
BITMAP
00
ENDCHAR
STARTCHAR exclam
ENCODING 33
SWIDTH 272 0
DWIDTH 4 0
BBX 2 11 1 0
BITMAP
C0
C0
C0
C0
C0
C0
40
40
00
C0
C0
ENDCHAR
STARTCHAR quotedbl
ENCODING 34
SWIDTH 389 0
DWIDTH 6 0
BBX 5 4 1 7
BITMAP
D8
D8
D0
90
ENDCHAR
STARTCHAR numbersign
ENCODING 35
SWIDTH 456 0
DWIDTH 7 0
BBX 7 11 0 0
BITMAP
36
36
24
FE
FE
6C
FE
FE
48
48
58
ENDCHAR
STARTCHAR dollar
ENCODING 36
SWIDTH 456 0
DWIDTH 7 0
BBX 6 13 1 -1
BITMAP
20
70
F8
E8
A0
E0
78
3C
2C
AC
F8
70
20
ENDCHAR
STARTCHAR percent
ENCODING 37
SWIDTH 729 0
DWIDTH 12 0
BBX 10 11 1 0
BITMAP
E300
B200
B200
B400
B400
E980
0AC0
1A40
1240
32C0
2180
ENDCHAR
STARTCHAR ampersand
ENCODING 38
SWIDTH 591 0
DWIDTH 9 0
BBX 8 11 1 0
BITMAP
38
7C
6C
7C
38
78
DA
8E
CE
FF
7B
ENDCHAR
STARTCHAR quotesingle
ENCODING 39
SWIDTH 194 0
DWIDTH 3 0
BBX 2 4 1 7
BITMAP
C0
C0
80
80
ENDCHAR
STARTCHAR parenleft
ENCODING 40
SWIDTH 272 0
DWIDTH 4 0
BBX 3 14 1 -3
BITMAP
60
40
C0
C0
C0
80
80
80
80
C0
C0
40
40
60
ENDCHAR
STARTCHAR parenright
ENCODING 41
SWIDTH 272 0
DWIDTH 4 0
BBX 3 14 1 -3
BITMAP
80
80
C0
40
40
60
60
60
60
40
40
C0
80
80
ENDCHAR
STARTCHAR asterisk
ENCODING 42
SWIDTH 318 0
DWIDTH 5 0
BBX 5 6 0 5
BITMAP
20
28
F8
20
50
50
ENDCHAR
STARTCHAR plus
ENCODING 43
SWIDTH 479 0
DWIDTH 8 0
BBX 6 8 1 2
BITMAP
30
30
30
FC
FC
30
30
30
ENDCHAR
STARTCHAR comma
ENCODING 44
SWIDTH 228 0
DWIDTH 4 0
BBX 2 5 1 -3
BITMAP
C0
C0
40
80
80
ENDCHAR
STARTCHAR hyphen
ENCODING 45
SWIDTH 272 0
DWIDTH 4 0
BBX 4 2 0 3
BITMAP
F0
F0
ENDCHAR
STARTCHAR period
ENCODING 46
SWIDTH 228 0
DWIDTH 4 0
BBX 2 2 1 0
BITMAP
C0
C0
ENDCHAR
STARTCHAR slash
ENCODING 47
SWIDTH 228 0
DWIDTH 4 0
BBX 4 11 0 0
BITMAP
30
20
20
20
60
40
40
40
40
C0
80
ENDCHAR
STARTCHAR zero
ENCODING 48
SWIDTH 456 0
DWIDTH 7 0
BBX 6 11 1 0
BITMAP
70
F8
D8
CC
8C
8C
8C
CC
D8
F8
70
ENDCHAR
STARTCHAR one
ENCODING 49
SWIDTH 456 0
DWIDTH 7 0
BBX 4 11 1 0
BITMAP
10
30
70
F0
B0
30
30
30
30
30
30
ENDCHAR
STARTCHAR two
ENCODING 50
SWIDTH 456 0
DWIDTH 7 0
BBX 7 11 0 0
BITMAP
38
7C
66
46
04
0C
18
30
60
7E
FE
ENDCHAR
STARTCHAR three
ENCODING 51
SWIDTH 456 0
DWIDTH 7 0
BBX 6 11 1 0
BITMAP
70
F8
98
18
38
38
0C
0C
8C
F8
70
ENDCHAR
STARTCHAR four
ENCODING 52
SWIDTH 456 0
DWIDTH 7 0
BBX 7 11 0 0
BITMAP
0C
1C
1C
3C
2C
6C
4C
FE
FE
0C
0C
ENDCHAR
STARTCHAR five
ENCODING 53
SWIDTH 456 0
DWIDTH 7 0
BBX 6 11 1 0
BITMAP
78
78
C0
F8
F8
CC
0C
8C
CC
F8
70
ENDCHAR
STARTCHAR six
ENCODING 54
SWIDTH 456 0
DWIDTH 7 0
BBX 6 11 1 0
BITMAP
70
F8
CC
C0
B8
F8
CC
CC
CC
F8
70
ENDCHAR
STARTCHAR seven
ENCODING 55
SWIDTH 456 0
DWIDTH 7 0
BBX 6 11 1 0
BITMAP
FC
FC
18
10
30
30
20
60
60
60
60
ENDCHAR
STARTCHAR eight
ENCODING 56
SWIDTH 456 0
DWIDTH 7 0
BBX 6 11 1 0
BITMAP
70
F8
C8
C8
F8
F8
CC
8C
CC
F8
70
ENDCHAR
STARTCHAR nine
ENCODING 57
SWIDTH 456 0
DWIDTH 7 0
BBX 7 11 0 0
BITMAP
38
7C
4C
C6
4E
7E
36
06
4C
7C
38
ENDCHAR
STARTCHAR colon
ENCODING 58
SWIDTH 272 0
DWIDTH 4 0
BBX 2 8 1 0
BITMAP
C0
C0
00
00
00
00
C0
C0
ENDCHAR
STARTCHAR semicolon
ENCODING 59
SWIDTH 272 0
DWIDTH 4 0
BBX 2 11 1 -3
BITMAP
C0
C0
00
00
00
00
C0
C0
40
40
80
ENDCHAR
STARTCHAR less
ENCODING 60
SWIDTH 479 0
DWIDTH 8 0
BBX 6 9 1 1
BITMAP
04
1C
38
E0
C0
E0
38
1C
04
ENDCHAR
STARTCHAR equal
ENCODING 61
SWIDTH 479 0
DWIDTH 8 0
BBX 6 5 1 3
BITMAP
FC
FC
00
FC
FC
ENDCHAR
STARTCHAR greater
ENCODING 62
SWIDTH 479 0
DWIDTH 8 0
BBX 6 9 1 1
BITMAP
80
C0
F0
3C
0C
3C
F0
C0
80
ENDCHAR
STARTCHAR question
ENCODING 63
SWIDTH 500 0
DWIDTH 8 0
BBX 6 11 1 0
BITMAP
78
FC
CC
84
0C
18
30
30
00
30
30
ENDCHAR
STARTCHAR at
ENCODING 64
SWIDTH 799 0
DWIDTH 13 0
BBX 13 14 0 -3
BITMAP
0F80
1FE0
3030
67D0
4FD0
5990
D890
D190
D9B0
5FE0
6FD8
3030
3FE0
0FC0
ENDCHAR
STARTCHAR A
ENCODING 65
SWIDTH 591 0
DWIDTH 9 0
BBX 9 11 0 0
BITMAP
1C00
1C00
1E00
3600
3600
3700
7300
7F00
7F80
E180
C180
ENDCHAR
STARTCHAR B
ENCODING 66
SWIDTH 591 0
DWIDTH 9 0
BBX 8 11 1 0
BITMAP
FE
FE
C0
C0
FC
FE
C3
C3
C3
FE
FE
ENDCHAR
STARTCHAR C
ENCODING 67
SWIDTH 591 0
DWIDTH 9 0
BBX 8 11 1 0
BITMAP
FC
FE
C6
C6
FE
FE
C3
C3
C3
FE
FE
ENDCHAR
STARTCHAR D
ENCODING 68
SWIDTH 591 0
DWIDTH 9 0
BBX 8 11 1 0
BITMAP
FC
FE
C6
C3
C3
C3
C3
C3
C6
FE
FC
ENDCHAR
STARTCHAR E
ENCODING 69
SWIDTH 546 0
DWIDTH 9 0
BBX 7 11 1 0
BITMAP
FE
FE
C0
C0
FE
FE
C0
C0
C0
FE
FE
ENDCHAR
STARTCHAR F
ENCODING 70
SWIDTH 500 0
DWIDTH 8 0
BBX 6 11 1 0
BITMAP
FC
FC
C0
C0
FC
FC
C0
C0
C0
C0
C0
ENDCHAR
STARTCHAR G
ENCODING 71
SWIDTH 638 0
DWIDTH 10 0
BBX 8 11 1 0
BITMAP
3C
7E
E3
C3
C0
CF
CF
C3
E3
7F
3E
ENDCHAR
STARTCHAR H
ENCODING 72
SWIDTH 591 0
DWIDTH 9 0
BBX 7 11 1 0
BITMAP
C2
C2
C2
C2
FE
FE
C2
C2
C2
C2
C2
ENDCHAR
STARTCHAR I
ENCODING 73
SWIDTH 228 0
DWIDTH 4 0
BBX 2 11 1 0
BITMAP
C0
C0
C0
C0
C0
C0
C0
C0
C0
C0
C0
ENDCHAR
STARTCHAR J
ENCODING 74
SWIDTH 456 0
DWIDTH 7 0
BBX 6 11 0 0
BITMAP
0C
0C
0C
0C
0C
0C
0C
CC
CC
7C
38
ENDCHAR
STARTCHAR K
ENCODING 75
SWIDTH 591 0
DWIDTH 9 0
BBX 8 11 1 0
BITMAP
C7
C6
CC
D8
F8
F8
EC
CE
C6
C7
C3
ENDCHAR
STARTCHAR L
ENCODING 76
SWIDTH 500 0
DWIDTH 8 0
BBX 7 11 1 0
BITMAP
C0
C0
C0
C0
C0
C0
C0
C0
C0
FE
FE
ENDCHAR
STARTCHAR M
ENCODING 77
SWIDTH 683 0
DWIDTH 11 0
BBX 9 11 1 0
BITMAP
E380
E380
E380
E780
F780
F580
D580
D580
DD80
DD80
D980
ENDCHAR
STARTCHAR N
ENCODING 78
SWIDTH 591 0
DWIDTH 9 0
BBX 7 11 1 0
BITMAP
C2
E2
E2
F2
F2
DA
DA
CE
CE
C6
C6
ENDCHAR
STARTCHAR O
ENCODING 79
SWIDTH 638 0
DWIDTH 10 0
BBX 9 11 1 0
BITMAP
3C00
7E00
E300
C300
C180
C180
C180
C300
E300
7E00
3C00
ENDCHAR
STARTCHAR P
ENCODING 80
SWIDTH 546 0
DWIDTH 9 0
BBX 7 11 1 0
BITMAP
FC
FE
C6
C6
C6
FE
FC
C0
C0
C0
C0
ENDCHAR
STARTCHAR Q
ENCODING 81
SWIDTH 638 0
DWIDTH 10 0
BBX 9 12 1 -1
BITMAP
3C00
7F00
E300
C300
C180
C180
C180
CB00
EF00
7F00
3F80
0180
ENDCHAR
STARTCHAR R
ENCODING 82
SWIDTH 591 0
DWIDTH 9 0
BBX 8 11 1 0
BITMAP
FE
FE
C3
C3
FE
FC
CC
CE
C6
C7
C3
ENDCHAR
STARTCHAR S
ENCODING 83
SWIDTH 546 0
DWIDTH 9 0
BBX 7 11 1 0
BITMAP
78
FC
CE
C6
F0
7C
0E
86
C6
FE
7C
ENDCHAR
STARTCHAR T
ENCODING 84
SWIDTH 500 0
DWIDTH 8 0
BBX 8 11 0 0
BITMAP
FF
FF
18
18
18
18
18
18
18
18
18
ENDCHAR
STARTCHAR U
ENCODING 85
SWIDTH 591 0
DWIDTH 9 0
BBX 7 11 1 0
BITMAP
C2
C2
C2
C2
C2
C2
C2
C6
C6
7E
3C
ENDCHAR
STARTCHAR V
ENCODING 86
SWIDTH 546 0
DWIDTH 9 0
BBX 9 11 0 0
BITMAP
C180
C300
6300
6300
6600
3600
3600
3400
1C00
1C00
1C00
ENDCHAR
STARTCHAR W
ENCODING 87
SWIDTH 773 0
DWIDTH 12 0
BBX 12 11 0 0
BITMAP
C630
C730
4730
6F30
6D20
6D60
69E0
29E0
38E0
38C0
30C0
ENDCHAR
STARTCHAR X
ENCODING 88
SWIDTH 546 0
DWIDTH 9 0
BBX 8 11 0 0
BITMAP
63
67
36
3C
1C
1C
1C
36
76
63
E3
ENDCHAR
STARTCHAR Y
ENCODING 89
SWIDTH 546 0
DWIDTH 9 0
BBX 8 11 0 0
BITMAP
C3
63
76
36
3C
1C
18
18
18
18
18
ENDCHAR
STARTCHAR Z
ENCODING 90
SWIDTH 500 0
DWIDTH 8 0
BBX 8 11 0 0
BITMAP
7F
7F
06
0C
1C
18
30
70
E0
FF
FF
ENDCHAR
STARTCHAR bracketleft
ENCODING 91
SWIDTH 272 0
DWIDTH 4 0
BBX 3 14 1 -3
BITMAP
E0
E0
C0
C0
C0
C0
C0
C0
C0
C0
C0
C0
E0
E0
ENDCHAR
STARTCHAR backslash
ENCODING 92
SWIDTH 228 0
DWIDTH 4 0
BBX 4 11 0 0
BITMAP
80
C0
40
40
40
40
60
20
20
20
30
ENDCHAR
STARTCHAR bracketright
ENCODING 93
SWIDTH 272 0
DWIDTH 4 0
BBX 3 14 0 -3
BITMAP
E0
E0
20
20
20
20
20
20
20
20
20
20
E0
E0
ENDCHAR
STARTCHAR asciicircum
ENCODING 94
SWIDTH 479 0
DWIDTH 8 0
BBX 6 6 1 5
BITMAP
30
30
78
58
C8
CC
ENDCHAR
STARTCHAR underscore
ENCODING 95
SWIDTH 456 0
DWIDTH 7 0
BBX 7 1 0 -2
BITMAP
FE
ENDCHAR
STARTCHAR grave
ENCODING 96
SWIDTH 272 0
DWIDTH 4 0
BBX 2 2 1 9
BITMAP
C0
40
ENDCHAR
STARTCHAR a
ENCODING 97
SWIDTH 456 0
DWIDTH 7 0
BBX 7 8 0 0
BITMAP
3C
7C
64
1C
7C
C4
7C
76
ENDCHAR
STARTCHAR b
ENCODING 98
SWIDTH 500 0
DWIDTH 8 0
BBX 7 11 1 0
BITMAP
C0
C0
C0
F8
FC
CC
C6
C4
CC
FC
F8
ENDCHAR
STARTCHAR c
ENCODING 99
SWIDTH 456 0
DWIDTH 7 0
BBX 6 8 1 0
BITMAP
78
F8
CC
80
80
CC
F8
78
ENDCHAR
STARTCHAR d
ENCODING 100
SWIDTH 500 0
DWIDTH 8 0
BBX 6 11 1 0
BITMAP
0C
0C
0C
7C
FC
CC
8C
8C
CC
FC
74
ENDCHAR
STARTCHAR e
ENCODING 101
SWIDTH 456 0
DWIDTH 7 0
BBX 7 8 0 0
BITMAP
38
7C
46
FE
C0
66
7C
38
ENDCHAR
STARTCHAR f
ENCODING 102
SWIDTH 272 0
DWIDTH 4 0
BBX 5 11 0 0
BITMAP
38
78
60
F0
F0
60
60
60
60
60
60
ENDCHAR
STARTCHAR g
ENCODING 103
SWIDTH 500 0
DWIDTH 8 0
BBX 6 11 1 -3
BITMAP
7C
FC
CC
8C
8C
CC
FC
7C
0C
CC
78
ENDCHAR
STARTCHAR h
ENCODING 104
SWIDTH 500 0
DWIDTH 8 0
BBX 6 11 1 0
BITMAP
C0
C0
C0
F8
FC
CC
CC
CC
CC
CC
CC
ENDCHAR
STARTCHAR i
ENCODING 105
SWIDTH 228 0
DWIDTH 4 0
BBX 2 11 1 0
BITMAP
C0
C0
00
C0
C0
C0
C0
C0
C0
C0
C0
ENDCHAR
STARTCHAR j
ENCODING 106
SWIDTH 228 0
DWIDTH 4 0
BBX 4 14 -1 -3
BITMAP
30
30
00
30
30
30
30
30
30
30
30
30
70
E0
ENDCHAR
STARTCHAR k
ENCODING 107
SWIDTH 456 0
DWIDTH 7 0
BBX 6 11 1 0
BITMAP
C0
C0
C0
DC
F8
F0
F0
D8
D8
C8
CC
ENDCHAR
STARTCHAR l
ENCODING 108
SWIDTH 228 0
DWIDTH 4 0
BBX 2 11 1 0
BITMAP
C0
C0
C0
C0
C0
C0
C0
C0
C0
C0
C0
ENDCHAR
STARTCHAR m
ENCODING 109
SWIDTH 729 0
DWIDTH 12 0
BBX 10 8 1 0
BITMAP
BB80
FFC0
CCC0
CCC0
CCC0
CCC0
CCC0
CCC0
ENDCHAR
STARTCHAR n
ENCODING 110
SWIDTH 500 0
DWIDTH 8 0
BBX 6 8 1 0
BITMAP
D8
FC
CC
CC
CC
CC
CC
CC
ENDCHAR
STARTCHAR o
ENCODING 111
SWIDTH 500 0
DWIDTH 8 0
BBX 7 8 1 0
BITMAP
78
FC
CC
86
86
CC
FC
78
ENDCHAR
STARTCHAR p
ENCODING 112
SWIDTH 500 0
DWIDTH 8 0
BBX 7 11 1 -3
BITMAP
F8
FC
CC
C6
C6
CC
FC
F8
C0
C0
C0
ENDCHAR
STARTCHAR q
ENCODING 113
SWIDTH 500 0
DWIDTH 8 0
BBX 6 11 1 -3
BITMAP
74
FC
CC
8C
8C
CC
FC
7C
0C
0C
0C
ENDCHAR
STARTCHAR r
ENCODING 114
SWIDTH 318 0
DWIDTH 5 0
BBX 4 8 1 0
BITMAP
F0
F0
C0
C0
C0
C0
C0
C0
ENDCHAR
STARTCHAR s
ENCODING 115
SWIDTH 456 0
DWIDTH 7 0
BBX 7 8 0 0
BITMAP
78
7C
44
7C
1E
C6
7C
38
ENDCHAR
STARTCHAR t
ENCODING 116
SWIDTH 272 0
DWIDTH 4 0
BBX 4 11 0 0
BITMAP
20
60
60
F0
F0
60
60
60
60
70
70
ENDCHAR
STARTCHAR u
ENCODING 117
SWIDTH 500 0
DWIDTH 8 0
BBX 6 8 1 0
BITMAP
CC
CC
CC
CC
CC
CC
FC
6C
ENDCHAR
STARTCHAR v
ENCODING 118
SWIDTH 456 0
DWIDTH 7 0
BBX 7 8 0 0
BITMAP
C6
46
6C
6C
2C
38
38
18
ENDCHAR
STARTCHAR w
ENCODING 119
SWIDTH 638 0
DWIDTH 10 0
BBX 10 8 0 0
BITMAP
CCC0
CCC0
4EC0
7E80
7F80
3B80
3300
3300
ENDCHAR
STARTCHAR x
ENCODING 120
SWIDTH 456 0
DWIDTH 7 0
BBX 7 8 0 0
BITMAP
E6
6C
38
38
38
3C
6C
C6
ENDCHAR
STARTCHAR y
ENCODING 121
SWIDTH 456 0
DWIDTH 7 0
BBX 7 11 0 -3
BITMAP
C6
46
64
6C
2C
38
38
38
30
70
60
ENDCHAR
STARTCHAR z
ENCODING 122
SWIDTH 410 0
DWIDTH 7 0
BBX 6 8 0 0
BITMAP
FC
FC
18
38
30
60
FC
FC
ENDCHAR
STARTCHAR braceleft
ENCODING 123
SWIDTH 318 0
DWIDTH 5 0
BBX 5 14 0 -3
BITMAP
38
38
20
20
20
60
E0
E0
60
20
20
30
38
38
ENDCHAR
STARTCHAR bar
ENCODING 124
SWIDTH 229 0
DWIDTH 4 0
BBX 2 14 1 -3
BITMAP
C0
C0
C0
C0
C0
C0
C0
C0
C0
C0
C0
C0
C0
C0
ENDCHAR
STARTCHAR braceright
ENCODING 125
SWIDTH 318 0
DWIDTH 5 0
BBX 5 14 0 -3
BITMAP
E0
E0
20
20
20
30
38
38
30
20
20
20
E0
E0
ENDCHAR
STARTCHAR asciitilde
ENCODING 126
SWIDTH 479 0
DWIDTH 8 0
BBX 7 3 0 4
BITMAP
72
FE
8E
ENDCHAR
STARTCHAR nbspace
ENCODING 160
SWIDTH 456 0
DWIDTH 7 0
BBX 1 1 0 0
BITMAP
00
ENDCHAR
STARTCHAR exclamdown
ENCODING 161
SWIDTH 272 0
DWIDTH 4 0
BBX 2 11 1 -3
BITMAP
C0
C0
00
40
40
40
C0
C0
C0
C0
C0
ENDCHAR
STARTCHAR cent
ENCODING 162
SWIDTH 456 0
DWIDTH 7 0
BBX 6 14 1 -3
BITMAP
08
08
10
78
F8
DC
A0
AC
EC
F8
70
40
40
40
ENDCHAR
STARTCHAR sterling
ENCODING 163
SWIDTH 456 0
DWIDTH 7 0
BBX 7 11 0 0
BITMAP
38
7C
64
66
60
F8
F8
60
72
FE
8E
ENDCHAR
STARTCHAR currency
ENCODING 164
SWIDTH 456 0
DWIDTH 7 0
BBX 7 9 0 1
BITMAP
40
FE
7C
64
44
64
7C
FE
40
ENDCHAR
STARTCHAR yen
ENCODING 165
SWIDTH 456 0
DWIDTH 7 0
BBX 7 11 0 0
BITMAP
C6
66
6C
2C
38
FE
FE
18
FE
FE
18
ENDCHAR
STARTCHAR brokenbar
ENCODING 166
SWIDTH 229 0
DWIDTH 4 0
BBX 2 14 1 -3
BITMAP
C0
C0
C0
C0
C0
C0
00
00
C0
C0
C0
C0
C0
C0
ENDCHAR
STARTCHAR section
ENCODING 167
SWIDTH 456 0
DWIDTH 7 0
BBX 7 14 0 -3
BITMAP
38
7C
6C
60
78
5C
C6
66
76
1C
0C
64
7C
38
ENDCHAR
STARTCHAR dieresis
ENCODING 168
SWIDTH 272 0
DWIDTH 4 0
BBX 4 2 0 10
BITMAP
D0
D0
ENDCHAR
STARTCHAR copyright
ENCODING 169
SWIDTH 604 0
DWIDTH 10 0
BBX 10 11 0 0
BITMAP
1E00
6100
4C80
9280
9040
B040
9040
9280
4C80
6100
1E00
ENDCHAR
STARTCHAR ordfeminine
ENCODING 170
SWIDTH 303 0
DWIDTH 5 0
BBX 4 6 0 6
BITMAP
70
10
70
D0
D0
70
ENDCHAR
STARTCHAR guillemotleft
ENCODING 171
SWIDTH 456 0
DWIDTH 7 0
BBX 5 7 1 1
BITMAP
68
58
D0
B0
D0
58
68
ENDCHAR
STARTCHAR logicalnot
ENCODING 172
SWIDTH 479 0
DWIDTH 8 0
BBX 6 5 1 3
BITMAP
FC
FC
0C
0C
0C
ENDCHAR
STARTCHAR hyphen.dup1
ENCODING 173
SWIDTH 272 0
DWIDTH 4 0
BBX 4 2 0 3
BITMAP
F0
F0
ENDCHAR
STARTCHAR registered
ENCODING 174
SWIDTH 604 0
DWIDTH 10 0
BBX 10 11 0 0
BITMAP
1E00
6100
5C80
9280
9240
9C40
9440
9680
5280
6100
1E00
ENDCHAR
STARTCHAR overscore
ENCODING 175
SWIDTH 500 0
DWIDTH 8 0
BBX 8 1 0 13
BITMAP
FF
ENDCHAR
STARTCHAR degree
ENCODING 176
SWIDTH 399 0
DWIDTH 6 0
BBX 5 5 1 6
BITMAP
70
90
98
90
70
ENDCHAR
STARTCHAR plusminus
ENCODING 177
SWIDTH 548 0
DWIDTH 9 0
BBX 8 11 0 0
BITMAP
18
18
18
FF
FF
18
18
18
00
FF
FF
ENDCHAR
STARTCHAR twosuperior
ENCODING 178
SWIDTH 272 0
DWIDTH 4 0
BBX 4 6 0 6
BITMAP
70
D0
30
20
40
F0
ENDCHAR
STARTCHAR threesuperior
ENCODING 179
SWIDTH 272 0
DWIDTH 4 0
BBX 4 6 0 6
BITMAP
60
D0
20
10
D0
60
ENDCHAR
STARTCHAR acute
ENCODING 180
SWIDTH 272 0
DWIDTH 4 0
BBX 3 2 1 9
BITMAP
60
C0
ENDCHAR
STARTCHAR mu1
ENCODING 181
SWIDTH 576 0
DWIDTH 9 0
BBX 7 11 1 -3
BITMAP
C6
C6
C6
C6
C6
C6
FE
DE
C0
C0
C0
ENDCHAR
STARTCHAR paragraph
ENCODING 182
SWIDTH 456 0
DWIDTH 7 0
BBX 7 14 0 -3
BITMAP
7E
FE
F6
F6
F6
76
16
16
16
16
16
16
16
16
ENDCHAR
STARTCHAR middot
ENCODING 183
SWIDTH 272 0
DWIDTH 4 0
BBX 2 2 1 4
BITMAP
C0
C0
ENDCHAR
STARTCHAR cedilla
ENCODING 184
SWIDTH 272 0
DWIDTH 4 0
BBX 4 3 0 -3
BITMAP
60
10
E0
ENDCHAR
STARTCHAR onesuperior
ENCODING 185
SWIDTH 272 0
DWIDTH 4 0
BBX 2 6 1 6
BITMAP
40
C0
40
40
40
40
ENDCHAR
STARTCHAR ordmasculine
ENCODING 186
SWIDTH 298 0
DWIDTH 5 0
BBX 5 6 0 6
BITMAP
70
D0
D8
D8
D0
70
ENDCHAR
STARTCHAR guillemotright
ENCODING 187
SWIDTH 456 0
DWIDTH 7 0
BBX 6 7 1 1
BITMAP
B0
D0
78
6C
78
D0
B0
ENDCHAR
STARTCHAR onequarter
ENCODING 188
SWIDTH 684 0
DWIDTH 11 0
BBX 10 12 1 0
BITMAP
4000
C200
4200
4400
4400
4800
08C0
10C0
11C0
23C0
23C0
40C0
ENDCHAR
STARTCHAR onehalf
ENCODING 189
SWIDTH 684 0
DWIDTH 11 0
BBX 10 12 1 0
BITMAP
4000
C200
4200
4400
4400
4800
09C0
1340
10C0
2080
2100
43C0
ENDCHAR
STARTCHAR threequarters
ENCODING 190
SWIDTH 684 0
DWIDTH 11 0
BBX 11 12 0 0
BITMAP
6000
D080
2080
1100
D100
6200
0260
0460
04E0
09E0
09E0
1060
ENDCHAR
STARTCHAR questiondown
ENCODING 191
SWIDTH 500 0
DWIDTH 8 0
BBX 6 11 1 -3
BITMAP
30
30
00
30
30
60
C0
84
CC
FC
78
ENDCHAR
STARTCHAR Agrave
ENCODING 192
SWIDTH 591 0
DWIDTH 9 0
BBX 9 14 0 0
BITMAP
0C00
0400
0000
1C00
1C00
1E00
3600
3600
3700
7300
7F00
7F80
E180
C180
ENDCHAR
STARTCHAR Aacute
ENCODING 193
SWIDTH 591 0
DWIDTH 9 0
BBX 9 14 0 0
BITMAP
0600
0C00
0000
1C00
1C00
1E00
3600
3600
3700
7300
7F00
7F80
E180
C180
ENDCHAR
STARTCHAR Acircumflex
ENCODING 194
SWIDTH 591 0
DWIDTH 9 0
BBX 9 14 0 0
BITMAP
0C00
1A00
0000
1C00
1C00
1E00
3600
3600
3700
7300
7F00
7F80
E180
C180
ENDCHAR
STARTCHAR Atilde
ENCODING 195
SWIDTH 591 0
DWIDTH 9 0
BBX 9 14 0 0
BITMAP
1A00
1600
0000
1C00
1C00
1E00
3600
3600
3700
7300
7F00
7F80
E180
C180
ENDCHAR
STARTCHAR Adieresis
ENCODING 196
SWIDTH 591 0
DWIDTH 9 0
BBX 9 14 0 0
BITMAP
1A00
1A00
0000
1C00
1C00
1E00
3600
3600
3700
7300
7F00
7F80
E180
C180
ENDCHAR
STARTCHAR Aring
ENCODING 197
SWIDTH 591 0
DWIDTH 9 0
BBX 9 15 0 0
BITMAP
0C00
0C00
0C00
0000
1C00
1C00
1E00
3600
3600
3700
7300
7F00
7F80
E180
C180
ENDCHAR
STARTCHAR AE
ENCODING 198
SWIDTH 819 0
DWIDTH 13 0
BBX 12 11 0 0
BITMAP
0FF0
1FF0
1B00
3300
33F0
23F0
7F00
7F00
C300
C3F0
C3F0
ENDCHAR
STARTCHAR Ccedilla
ENCODING 199
SWIDTH 591 0
DWIDTH 9 0
BBX 8 14 1 -3
BITMAP
3C
7E
E7
C2
C0
C0
C0
C2
E7
7E
3C
18
04
38
ENDCHAR
STARTCHAR Egrave
ENCODING 200
SWIDTH 546 0
DWIDTH 9 0
BBX 7 14 1 0
BITMAP
30
10
00
FE
FE
C0
C0
FE
FE
C0
C0
C0
FE
FE
ENDCHAR
STARTCHAR Eacute
ENCODING 201
SWIDTH 546 0
DWIDTH 9 0
BBX 7 14 1 0
BITMAP
18
30
00
FE
FE
C0
C0
FE
FE
C0
C0
C0
FE
FE
ENDCHAR
STARTCHAR Ecircumflex
ENCODING 202
SWIDTH 546 0
DWIDTH 9 0
BBX 7 14 1 0
BITMAP
30
68
00
FE
FE
C0
C0
FE
FE
C0
C0
C0
FE
FE
ENDCHAR
STARTCHAR Edieresis
ENCODING 203
SWIDTH 546 0
DWIDTH 9 0
BBX 7 14 1 0
BITMAP
68
68
00
FE
FE
C0
C0
FE
FE
C0
C0
C0
FE
FE
ENDCHAR
STARTCHAR Igrave
ENCODING 204
SWIDTH 228 0
DWIDTH 4 0
BBX 2 14 1 0
BITMAP
C0
40
00
C0
C0
C0
C0
C0
C0
C0
C0
C0
C0
C0
ENDCHAR
STARTCHAR Iacute
ENCODING 205
SWIDTH 228 0
DWIDTH 4 0
BBX 3 14 1 0
BITMAP
60
C0
00
C0
C0
C0
C0
C0
C0
C0
C0
C0
C0
C0
ENDCHAR
STARTCHAR Icircumflex
ENCODING 206
SWIDTH 228 0
DWIDTH 4 0
BBX 4 14 0 0
BITMAP
60
D0
00
60
60
60
60
60
60
60
60
60
60
60
ENDCHAR
STARTCHAR Idieresis
ENCODING 207
SWIDTH 228 0
DWIDTH 4 0
BBX 4 14 0 0
BITMAP
D0
D0
00
60
60
60
60
60
60
60
60
60
60
60
ENDCHAR
STARTCHAR Eth
ENCODING 208
SWIDTH 591 0
DWIDTH 9 0
BBX 9 11 0 0
BITMAP
7E00
7F00
6300
6180
F980
F980
6180
6180
6300
7F00
7E00
ENDCHAR
STARTCHAR Ntilde
ENCODING 209
SWIDTH 591 0
DWIDTH 9 0
BBX 7 14 1 0
BITMAP
34
2C
00
C2
E2
E2
F2
F2
DA
DA
CE
CE
C6
C6
ENDCHAR
STARTCHAR Ograve
ENCODING 210
SWIDTH 638 0
DWIDTH 10 0
BBX 9 14 1 0
BITMAP
1800
0800
0000
3C00
7E00
E300
C300
C180
C180
C180
C300
E300
7E00
3C00
ENDCHAR
STARTCHAR Oacute
ENCODING 211
SWIDTH 638 0
DWIDTH 10 0
BBX 9 14 1 0
BITMAP
0C00
1800
0000
3C00
7E00
E300
C300
C180
C180
C180
C300
E300
7E00
3C00
ENDCHAR
STARTCHAR Ocircumflex
ENCODING 212
SWIDTH 638 0
DWIDTH 10 0
BBX 9 14 1 0
BITMAP
1800
3400
0000
3C00
7E00
E300
C300
C180
C180
C180
C300
E300
7E00
3C00
ENDCHAR
STARTCHAR Otilde
ENCODING 213
SWIDTH 638 0
DWIDTH 10 0
BBX 9 14 1 0
BITMAP
3400
2C00
0000
3C00
7E00
E300
C300
C180
C180
C180
C300
E300
7E00
3C00
ENDCHAR
STARTCHAR Odieresis
ENCODING 214
SWIDTH 638 0
DWIDTH 10 0
BBX 9 14 1 0
BITMAP
3400
3400
0000
3C00
7E00
E300
C300
C180
C180
C180
C300
E300
7E00
3C00
ENDCHAR
STARTCHAR multiply
ENCODING 215
SWIDTH 479 0
DWIDTH 8 0
BBX 6 5 1 3
BITMAP
DC
F8
70
F8
DC
ENDCHAR
STARTCHAR Oslash
ENCODING 216
SWIDTH 638 0
DWIDTH 10 0
BBX 9 11 1 0
BITMAP
3D00
7F00
E300
C700
CD80
D980
F180
E300
E300
FE00
BC00
ENDCHAR
STARTCHAR Ugrave
ENCODING 217
SWIDTH 591 0
DWIDTH 9 0
BBX 7 14 1 0
BITMAP
18
08
00
C2
C2
C2
C2
C2
C2
C2
C6
C6
7E
3C
ENDCHAR
STARTCHAR Uacute
ENCODING 218
SWIDTH 591 0
DWIDTH 9 0
BBX 7 14 1 0
BITMAP
0C
18
00
C2
C2
C2
C2
C2
C2
C2
C6
C6
7E
3C
ENDCHAR
STARTCHAR Ucircumflex
ENCODING 219
SWIDTH 591 0
DWIDTH 9 0
BBX 7 14 1 0
BITMAP
18
34
00
C2
C2
C2
C2
C2
C2
C2
C6
C6
7E
3C
ENDCHAR
STARTCHAR Udieresis
ENCODING 220
SWIDTH 591 0
DWIDTH 9 0
BBX 7 14 1 0
BITMAP
34
34
00
C2
C2
C2
C2
C2
C2
C2
C6
C6
7E
3C
ENDCHAR
STARTCHAR Yacute
ENCODING 221
SWIDTH 546 0
DWIDTH 9 0
BBX 8 14 0 0
BITMAP
0C
18
00
C3
63
76
36
3C
1C
18
18
18
18
18
ENDCHAR
STARTCHAR Thorn
ENCODING 222
SWIDTH 546 0
DWIDTH 9 0
BBX 7 11 1 0
BITMAP
C0
C0
FC
FE
C6
C6
C6
FE
FC
C0
C0
ENDCHAR
STARTCHAR germandbls
ENCODING 223
SWIDTH 500 0
DWIDTH 8 0
BBX 7 11 1 0
BITMAP
70
F8
D8
D8
D8
D8
DC
CC
D6
FC
DC
ENDCHAR
STARTCHAR agrave
ENCODING 224
SWIDTH 456 0
DWIDTH 7 0
BBX 7 11 0 0
BITMAP
30
10
00
3C
7C
64
1C
7C
C4
7C
76
ENDCHAR
STARTCHAR aacute
ENCODING 225
SWIDTH 456 0
DWIDTH 7 0
BBX 7 11 0 0
BITMAP
0C
18
00
3C
7C
64
1C
7C
C4
7C
76
ENDCHAR
STARTCHAR acircumflex
ENCODING 226
SWIDTH 456 0
DWIDTH 7 0
BBX 7 11 0 0
BITMAP
30
68
00
3C
7C
64
1C
7C
C4
7C
76
ENDCHAR
STARTCHAR atilde
ENCODING 227
SWIDTH 456 0
DWIDTH 7 0
BBX 7 11 0 0
BITMAP
34
2C
00
3C
7C
64
1C
7C
C4
7C
76
ENDCHAR
STARTCHAR adieresis
ENCODING 228
SWIDTH 456 0
DWIDTH 7 0
BBX 7 11 0 0
BITMAP
68
68
00
3C
7C
64
1C
7C
C4
7C
76
ENDCHAR
STARTCHAR aring
ENCODING 229
SWIDTH 456 0
DWIDTH 7 0
BBX 7 12 0 0
BITMAP
30
30
30
00
3C
7C
64
1C
7C
C4
7C
76
ENDCHAR
STARTCHAR ae
ENCODING 230
SWIDTH 729 0
DWIDTH 12 0
BBX 10 8 1 0
BITMAP
7F00
FF80
CCC0
3FC0
FFC0
8C00
FFC0
F780
ENDCHAR
STARTCHAR ccedilla
ENCODING 231
SWIDTH 456 0
DWIDTH 7 0
BBX 6 11 1 -3
BITMAP
78
F8
CC
80
80
CC
F8
78
30
08
70
ENDCHAR
STARTCHAR egrave
ENCODING 232
SWIDTH 456 0
DWIDTH 7 0
BBX 7 11 0 0
BITMAP
30
10
00
38
7C
46
FE
C0
66
7C
38
ENDCHAR
STARTCHAR eacute
ENCODING 233
SWIDTH 456 0
DWIDTH 7 0
BBX 7 11 0 0
BITMAP
0C
18
00
38
7C
46
FE
C0
66
7C
38
ENDCHAR
STARTCHAR ecircumflex
ENCODING 234
SWIDTH 456 0
DWIDTH 7 0
BBX 7 11 0 0
BITMAP
30
68
00
38
7C
46
FE
C0
66
7C
38
ENDCHAR
STARTCHAR edieresis
ENCODING 235
SWIDTH 456 0
DWIDTH 7 0
BBX 7 11 0 0
BITMAP
68
68
00
38
7C
46
FE
C0
66
7C
38
ENDCHAR
STARTCHAR igrave
ENCODING 236
SWIDTH 228 0
DWIDTH 4 0
BBX 2 11 1 0
BITMAP
C0
40
00
C0
C0
C0
C0
C0
C0
C0
C0
ENDCHAR
STARTCHAR iacute
ENCODING 237
SWIDTH 228 0
DWIDTH 4 0
BBX 3 11 1 0
BITMAP
60
C0
00
C0
C0
C0
C0
C0
C0
C0
C0
ENDCHAR
STARTCHAR icircumflex
ENCODING 238
SWIDTH 228 0
DWIDTH 4 0
BBX 4 11 0 0
BITMAP
60
D0
00
60
60
60
60
60
60
60
60
ENDCHAR
STARTCHAR idieresis
ENCODING 239
SWIDTH 228 0
DWIDTH 4 0
BBX 4 11 0 0
BITMAP
D0
D0
00
60
60
60
60
60
60
60
60
ENDCHAR
STARTCHAR eth
ENCODING 240
SWIDTH 500 0
DWIDTH 8 0
BBX 7 11 1 0
BITMAP
38
30
58
7C
FC
CC
86
84
CC
FC
78
ENDCHAR
STARTCHAR ntilde
ENCODING 241
SWIDTH 500 0
DWIDTH 8 0
BBX 6 11 1 0
BITMAP
68
58
00
D8
FC
CC
CC
CC
CC
CC
CC
ENDCHAR
STARTCHAR ograve
ENCODING 242
SWIDTH 500 0
DWIDTH 8 0
BBX 7 11 1 0
BITMAP
30
10
00
78
FC
CC
86
86
CC
FC
78
ENDCHAR
STARTCHAR oacute
ENCODING 243
SWIDTH 500 0
DWIDTH 8 0
BBX 7 11 1 0
BITMAP
18
30
00
78
FC
CC
86
86
CC
FC
78
ENDCHAR
STARTCHAR ocircumflex
ENCODING 244
SWIDTH 500 0
DWIDTH 8 0
BBX 7 11 1 0
BITMAP
30
68
00
78
FC
CC
86
86
CC
FC
78
ENDCHAR
STARTCHAR otilde
ENCODING 245
SWIDTH 500 0
DWIDTH 8 0
BBX 7 11 1 0
BITMAP
68
58
00
78
FC
CC
86
86
CC
FC
78
ENDCHAR
STARTCHAR odieresis
ENCODING 246
SWIDTH 500 0
DWIDTH 8 0
BBX 7 11 1 0
BITMAP
68
68
00
78
FC
CC
86
86
CC
FC
78
ENDCHAR
STARTCHAR divide
ENCODING 247
SWIDTH 548 0
DWIDTH 9 0
BBX 8 8 0 1
BITMAP
18
18
00
FF
FF
00
18
18
ENDCHAR
STARTCHAR oslash
ENCODING 248
SWIDTH 500 0
DWIDTH 8 0
BBX 7 8 1 0
BITMAP
7C
FC
CC
96
A6
CC
FC
B8
ENDCHAR
STARTCHAR ugrave
ENCODING 249
SWIDTH 500 0
DWIDTH 8 0
BBX 6 11 1 0
BITMAP
30
10
00
CC
CC
CC
CC
CC
CC
FC
6C
ENDCHAR
STARTCHAR uacute
ENCODING 250
SWIDTH 500 0
DWIDTH 8 0
BBX 6 11 1 0
BITMAP
18
30
00
CC
CC
CC
CC
CC
CC
FC
6C
ENDCHAR
STARTCHAR ucircumflex
ENCODING 251
SWIDTH 500 0
DWIDTH 8 0
BBX 6 11 1 0
BITMAP
30
68
00
CC
CC
CC
CC
CC
CC
FC
6C
ENDCHAR
STARTCHAR udieresis
ENCODING 252
SWIDTH 500 0
DWIDTH 8 0
BBX 6 11 1 0
BITMAP
68
68
00
CC
CC
CC
CC
CC
CC
FC
6C
ENDCHAR
STARTCHAR yacute
ENCODING 253
SWIDTH 456 0
DWIDTH 7 0
BBX 7 14 0 -3
BITMAP
18
30
00
C6
46
64
6C
2C
38
38
38
30
70
60
ENDCHAR
STARTCHAR thorn
ENCODING 254
SWIDTH 500 0
DWIDTH 8 0
BBX 7 14 1 -3
BITMAP
C0
C0
C0
F8
FC
CC
C6
C6
CC
FC
F8
C0
C0
C0
ENDCHAR
STARTCHAR ydieresis
ENCODING 255
SWIDTH 456 0
DWIDTH 7 0
BBX 7 14 0 -3
BITMAP
68
68
00
C6
46
64
6C
2C
38
38
38
30
70
60
ENDCHAR
STARTCHAR Amacron
ENCODING 256
SWIDTH 591 0
DWIDTH 9 0
BBX 9 14 0 0
BITMAP
3C00
3C00
0000
1C00
1C00
1E00
3600
3600
3700
7300
7F00
7F80
E180
C180
ENDCHAR
STARTCHAR amacron
ENCODING 257
SWIDTH 456 0
DWIDTH 7 0
BBX 7 11 0 0
BITMAP
3C
3C
00
3C
7C
64
1C
7C
C4
7C
76
ENDCHAR
STARTCHAR Abreve
ENCODING 258
SWIDTH 591 0
DWIDTH 9 0
BBX 9 14 0 0
BITMAP
1200
0E00
0000
1C00
1C00
1E00
3600
3600
3700
7300
7F00
7F80
E180
C180
ENDCHAR
STARTCHAR abreve
ENCODING 259
SWIDTH 456 0
DWIDTH 7 0
BBX 7 11 0 0
BITMAP
24
1C
00
3C
7C
64
1C
7C
C4
7C
76
ENDCHAR
STARTCHAR Aogonek
ENCODING 260
SWIDTH 591 0
DWIDTH 9 0
BBX 10 14 0 -3
BITMAP
1C00
1C00
1E00
3600
3600
3700
7300
7F00
7F80
E180
C180
0100
0100
01C0
ENDCHAR
STARTCHAR aogonek
ENCODING 261
SWIDTH 456 0
DWIDTH 7 0
BBX 8 11 0 -3
BITMAP
3C
7C
64
1C
7C
C4
7C
76
04
04
07
ENDCHAR
STARTCHAR Cacute
ENCODING 262
SWIDTH 591 0
DWIDTH 9 0
BBX 8 14 1 0
BITMAP
0C
18
00
3C
7E
E7
C2
C0
C0
C0
C2
E7
7E
3C
ENDCHAR
STARTCHAR cacute
ENCODING 263
SWIDTH 456 0
DWIDTH 7 0
BBX 6 11 1 0
BITMAP
18
30
00
78
F8
CC
80
80
CC
F8
78
ENDCHAR
STARTCHAR Ccircumflex
ENCODING 264
SWIDTH 591 0
DWIDTH 9 0
BBX 8 14 1 0
BITMAP
18
34
00
3C
7E
E7
C2
C0
C0
C0
C2
E7
7E
3C
ENDCHAR
STARTCHAR ccircumflex
ENCODING 265
SWIDTH 456 0
DWIDTH 7 0
BBX 6 11 1 0
BITMAP
30
68
00
78
F8
CC
80
80
CC
F8
78
ENDCHAR
STARTCHAR Cdot
ENCODING 266
SWIDTH 591 0
DWIDTH 9 0
BBX 8 14 1 0
BITMAP
18
18
00
3C
7E
E7
C2
C0
C0
C0
C2
E7
7E
3C
ENDCHAR
STARTCHAR cdot
ENCODING 267
SWIDTH 456 0
DWIDTH 7 0
BBX 6 11 1 0
BITMAP
30
30
00
78
F8
CC
80
80
CC
F8
78
ENDCHAR
STARTCHAR Ccaron
ENCODING 268
SWIDTH 591 0
DWIDTH 9 0
BBX 8 14 1 0
BITMAP
34
18
00
3C
7E
E7
C2
C0
C0
C0
C2
E7
7E
3C
ENDCHAR
STARTCHAR ccaron
ENCODING 269
SWIDTH 456 0
DWIDTH 7 0
BBX 6 11 1 0
BITMAP
68
30
00
78
F8
CC
80
80
CC
F8
78
ENDCHAR
STARTCHAR Dcaron
ENCODING 270
SWIDTH 591 0
DWIDTH 9 0
BBX 8 14 1 0
BITMAP
68
30
00
FC
FE
C6
C3
C3
C3
C3
C3
C6
FE
FC
ENDCHAR
STARTCHAR dcaron
ENCODING 271
SWIDTH 588 0
DWIDTH 9 0
BBX 9 11 1 0
BITMAP
0D80
0D80
0C80
7D00
FD00
CC00
8C00
8C00
CC00
FC00
7400
ENDCHAR
STARTCHAR Dslash
ENCODING 272
SWIDTH 591 0
DWIDTH 9 0
BBX 9 11 0 0
BITMAP
7E00
7F00
6300
6180
F980
F980
6180
6180
6300
7F00
7E00
ENDCHAR
STARTCHAR dmacron
ENCODING 273
SWIDTH 503 0
DWIDTH 8 0
BBX 7 11 1 0
BITMAP
0C
3E
0C
7C
FC
CC
8C
8C
CC
FC
74
ENDCHAR
STARTCHAR Emacron
ENCODING 274
SWIDTH 546 0
DWIDTH 9 0
BBX 7 14 1 0
BITMAP
78
78
00
FE
FE
C0
C0
FE
FE
C0
C0
C0
FE
FE
ENDCHAR
STARTCHAR emacron
ENCODING 275
SWIDTH 456 0
DWIDTH 7 0
BBX 7 11 0 0
BITMAP
78
78
00
38
7C
46
FE
C0
66
7C
38
ENDCHAR
STARTCHAR Ebreve
ENCODING 276
SWIDTH 546 0
DWIDTH 9 0
BBX 7 14 1 0
BITMAP
48
38
00
FE
FE
C0
C0
FE
FE
C0
C0
C0
FE
FE
ENDCHAR
STARTCHAR ebreve
ENCODING 277
SWIDTH 456 0
DWIDTH 7 0
BBX 7 11 0 0
BITMAP
24
1C
00
38
7C
46
FE
C0
66
7C
38
ENDCHAR
STARTCHAR Edot
ENCODING 278
SWIDTH 546 0
DWIDTH 9 0
BBX 7 14 1 0
BITMAP
30
30
00
FE
FE
C0
C0
FE
FE
C0
C0
C0
FE
FE
ENDCHAR
STARTCHAR edot
ENCODING 279
SWIDTH 456 0
DWIDTH 7 0
BBX 7 11 0 0
BITMAP
30
30
00
38
7C
46
FE
C0
66
7C
38
ENDCHAR
STARTCHAR Eogonek
ENCODING 280
SWIDTH 546 0
DWIDTH 9 0
BBX 7 14 1 -3
BITMAP
FE
FE
C0
C0
FE
FE
C0
C0
C0
FE
FE
08
08
0E
ENDCHAR
STARTCHAR eogonek
ENCODING 281
SWIDTH 456 0
DWIDTH 7 0
BBX 7 11 0 -3
BITMAP
38
7C
46
FE
C0
66
7C
38
10
10
1C
ENDCHAR
STARTCHAR Ecaron
ENCODING 282
SWIDTH 546 0
DWIDTH 9 0
BBX 7 14 1 0
BITMAP
68
30
00
FE
FE
C0
C0
FE
FE
C0
C0
C0
FE
FE
ENDCHAR
STARTCHAR ecaron
ENCODING 283
SWIDTH 456 0
DWIDTH 7 0
BBX 7 11 0 0
BITMAP
34
18
00
38
7C
46
FE
C0
66
7C
38
ENDCHAR
STARTCHAR Gcircumflex
ENCODING 284
SWIDTH 638 0
DWIDTH 10 0
BBX 8 14 1 0
BITMAP
18
34
00
3C
7E
E3
C3
C0
CF
CF
C3
E3
7F
3E
ENDCHAR
STARTCHAR gcircumflex
ENCODING 285
SWIDTH 500 0
DWIDTH 8 0
BBX 6 14 1 -3
BITMAP
30
68
00
7C
FC
CC
8C
8C
CC
FC
7C
0C
CC
78
ENDCHAR
STARTCHAR Gbreve
ENCODING 286
SWIDTH 638 0
DWIDTH 10 0
BBX 8 14 1 0
BITMAP
24
1C
00
3C
7E
E3
C3
C0
CF
CF
C3
E3
7F
3E
ENDCHAR
STARTCHAR gbreve
ENCODING 287
SWIDTH 500 0
DWIDTH 8 0
BBX 6 14 1 -3
BITMAP
48
38
00
7C
FC
CC
8C
8C
CC
FC
7C
0C
CC
78
ENDCHAR
STARTCHAR Gdot
ENCODING 288
SWIDTH 638 0
DWIDTH 10 0
BBX 8 14 1 0
BITMAP
18
18
00
3C
7E
E3
C3
C0
CF
CF
C3
E3
7F
3E
ENDCHAR
STARTCHAR gdot
ENCODING 289
SWIDTH 500 0
DWIDTH 8 0
BBX 6 14 1 -3
BITMAP
30
30
00
7C
FC
CC
8C
8C
CC
FC
7C
0C
CC
78
ENDCHAR
STARTCHAR Gcedilla
ENCODING 290
SWIDTH 638 0
DWIDTH 10 0
BBX 8 14 1 -3
BITMAP
3C
7E
E3
C3
C0
CF
CF
C3
E3
7F
3E
18
04
38
ENDCHAR
STARTCHAR gcedilla
ENCODING 291
SWIDTH 500 0
DWIDTH 8 0
BBX 6 16 1 -3
BITMAP
10
20
30
30
00
7C
FC
CC
8C
8C
CC
FC
7C
0C
CC
78
ENDCHAR
STARTCHAR Hcircumflex
ENCODING 292
SWIDTH 591 0
DWIDTH 9 0
BBX 7 14 1 0
BITMAP
18
34
00
C2
C2
C2
C2
FE
FE
C2
C2
C2
C2
C2
ENDCHAR
STARTCHAR hcircumflex
ENCODING 293
SWIDTH 500 0
DWIDTH 8 0
BBX 6 14 1 0
BITMAP
30
68
00
C0
C0
C0
F8
FC
CC
CC
CC
CC
CC
CC
ENDCHAR
STARTCHAR Hbar
ENCODING 294
SWIDTH 591 0
DWIDTH 9 0
BBX 9 11 0 0
BITMAP
6100
6100
FF80
6100
7F00
7F00
6100
6100
6100
6100
6100
ENDCHAR
STARTCHAR hbar
ENCODING 295
SWIDTH 500 0
DWIDTH 8 0
BBX 7 11 0 0
BITMAP
60
F8
60
6C
7E
66
66
66
66
66
66
ENDCHAR
STARTCHAR Itilde
ENCODING 296
SWIDTH 228 0
DWIDTH 4 0
BBX 4 14 0 0
BITMAP
D0
B0
00
60
60
60
60
60
60
60
60
60
60
60
ENDCHAR
STARTCHAR itilde
ENCODING 297
SWIDTH 228 0
DWIDTH 4 0
BBX 4 11 0 0
BITMAP
D0
B0
00
60
60
60
60
60
60
60
60
ENDCHAR
STARTCHAR Imacron
ENCODING 298
SWIDTH 228 0
DWIDTH 4 0
BBX 4 14 0 0
BITMAP
F0
F0
00
60
60
60
60
60
60
60
60
60
60
60
ENDCHAR
STARTCHAR imacron
ENCODING 299
SWIDTH 228 0
DWIDTH 4 0
BBX 4 11 0 0
BITMAP
F0
F0
00
60
60
60
60
60
60
60
60
ENDCHAR
STARTCHAR Ibreve
ENCODING 300
SWIDTH 228 0
DWIDTH 4 0
BBX 4 14 0 0
BITMAP
90
70
00
60
60
60
60
60
60
60
60
60
60
60
ENDCHAR
STARTCHAR ibreve
ENCODING 301
SWIDTH 228 0
DWIDTH 4 0
BBX 4 11 0 0
BITMAP
90
70
00
60
60
60
60
60
60
60
60
ENDCHAR
STARTCHAR Iogonek
ENCODING 302
SWIDTH 228 0
DWIDTH 4 0
BBX 3 14 1 -3
BITMAP
C0
C0
C0
C0
C0
C0
C0
C0
C0
C0
C0
80
80
E0
ENDCHAR
STARTCHAR iogonek
ENCODING 303
SWIDTH 228 0
DWIDTH 4 0
BBX 3 14 1 -3
BITMAP
C0
C0
00
C0
C0
C0
C0
C0
C0
C0
C0
80
80
E0
ENDCHAR
STARTCHAR Idot
ENCODING 304
SWIDTH 228 0
DWIDTH 4 0
BBX 2 14 1 0
BITMAP
C0
C0
00
C0
C0
C0
C0
C0
C0
C0
C0
C0
C0
C0
ENDCHAR
STARTCHAR dotlessi
ENCODING 305
SWIDTH 228 0
DWIDTH 4 0
BBX 2 8 1 0
BITMAP
C0
C0
C0
C0
C0
C0
C0
C0
ENDCHAR
STARTCHAR IJ
ENCODING 306
SWIDTH 684 0
DWIDTH 11 0
BBX 9 11 1 0
BITMAP
C180
C180
C180
C180
C180
C180
C180
D980
D980
CF80
C700
ENDCHAR
STARTCHAR ij
ENCODING 307
SWIDTH 456 0
DWIDTH 7 0
BBX 6 14 1 -3
BITMAP
CC
CC
00
CC
CC
CC
CC
CC
CC
CC
CC
0C
1C
38
ENDCHAR
STARTCHAR Jcircumflex
ENCODING 308
SWIDTH 456 0
DWIDTH 7 0
BBX 7 14 0 0
BITMAP
0C
1A
00
0C
0C
0C
0C
0C
0C
0C
CC
CC
7C
38
ENDCHAR
STARTCHAR jcircumflex
ENCODING 309
SWIDTH 228 0
DWIDTH 4 0
BBX 5 14 -1 -3
BITMAP
30
78
00
30
30
30
30
30
30
30
30
30
70
E0
ENDCHAR
STARTCHAR Kcedilla
ENCODING 310
SWIDTH 591 0
DWIDTH 9 0
BBX 8 14 1 -3
BITMAP
C7
C6
CC
D8
F8
F8
EC
CE
C6
C7
C3
18
04
38
ENDCHAR
STARTCHAR kcedilla
ENCODING 311
SWIDTH 456 0
DWIDTH 7 0
BBX 6 14 1 -3
BITMAP
C0
C0
C0
DC
F8
F0
F0
D8
D8
C8
CC
30
08
70
ENDCHAR
STARTCHAR kgreenlandic
ENCODING 312
SWIDTH 457 0
DWIDTH 7 0
BBX 6 8 1 0
BITMAP
DC
D8
F0
E0
F0
D8
D8
CC
ENDCHAR
STARTCHAR Lacute
ENCODING 313
SWIDTH 500 0
DWIDTH 8 0
BBX 7 14 1 0
BITMAP
18
30
00
C0
C0
C0
C0
C0
C0
C0
C0
C0
FE
FE
ENDCHAR
STARTCHAR lacute
ENCODING 314
SWIDTH 228 0
DWIDTH 4 0
BBX 3 14 1 0
BITMAP
60
C0
00
C0
C0
C0
C0
C0
C0
C0
C0
C0
C0
C0
ENDCHAR
STARTCHAR Lcedilla
ENCODING 315
SWIDTH 500 0
DWIDTH 8 0
BBX 7 14 1 -3
BITMAP
C0
C0
C0
C0
C0
C0
C0
C0
C0
FE
FE
30
08
70
ENDCHAR
STARTCHAR lcedilla
ENCODING 316
SWIDTH 228 0
DWIDTH 4 0
BBX 4 14 0 -3
BITMAP
60
60
60
60
60
60
60
60
60
60
60
60
10
E0
ENDCHAR
STARTCHAR Lcaron
ENCODING 317
SWIDTH 500 0
DWIDTH 8 0
BBX 7 11 1 0
BITMAP
CC
CC
C4
C8
C0
C0
C0
C0
C0
FE
FE
ENDCHAR
STARTCHAR lcaron
ENCODING 318
SWIDTH 315 0
DWIDTH 5 0
BBX 5 11 1 0
BITMAP
D8
D8
C8
D0
D0
C0
C0
C0
C0
C0
C0
ENDCHAR
STARTCHAR Ldot
ENCODING 319
SWIDTH 500 0
DWIDTH 8 0
BBX 7 11 1 0
BITMAP
C0
C0
C0
C0
CC
CC
C0
C0
C0
FE
FE
ENDCHAR
STARTCHAR ldot
ENCODING 320
SWIDTH 333 0
DWIDTH 5 0
BBX 4 11 1 0
BITMAP
C0
C0
C0
C0
F0
F0
C0
C0
C0
C0
C0
ENDCHAR
STARTCHAR Lslash
ENCODING 321
SWIDTH 500 0
DWIDTH 8 0
BBX 8 11 0 0
BITMAP
60
60
60
70
70
60
E0
E0
60
7F
7F
ENDCHAR
STARTCHAR lslash
ENCODING 322
SWIDTH 228 0
DWIDTH 4 0
BBX 4 11 0 0
BITMAP
60
60
60
70
60
60
E0
60
60
60
60
ENDCHAR
STARTCHAR Nacute
ENCODING 323
SWIDTH 591 0
DWIDTH 9 0
BBX 7 14 1 0
BITMAP
18
30
00
C2
E2
E2
F2
F2
DA
DA
CE
CE
C6
C6
ENDCHAR
STARTCHAR nacute
ENCODING 324
SWIDTH 500 0
DWIDTH 8 0
BBX 6 11 1 0
BITMAP
18
30
00
D8
FC
CC
CC
CC
CC
CC
CC
ENDCHAR
STARTCHAR Ncedilla
ENCODING 325
SWIDTH 591 0
DWIDTH 9 0
BBX 7 14 1 -3
BITMAP
C2
E2
E2
F2
F2
DA
DA
CE
CE
C6
C6
18
04
38
ENDCHAR
STARTCHAR ncedilla
ENCODING 326
SWIDTH 500 0
DWIDTH 8 0
BBX 6 11 1 -3
BITMAP
D8
FC
CC
CC
CC
CC
CC
CC
30
08
70
ENDCHAR
STARTCHAR Ncaron
ENCODING 327
SWIDTH 591 0
DWIDTH 9 0
BBX 7 14 1 0
BITMAP
34
18
00
C2
E2
E2
F2
F2
DA
DA
CE
CE
C6
C6
ENDCHAR
STARTCHAR ncaron
ENCODING 328
SWIDTH 500 0
DWIDTH 8 0
BBX 6 11 1 0
BITMAP
68
30
00
D8
FC
CC
CC
CC
CC
CC
CC
ENDCHAR
STARTCHAR napostrophe
ENCODING 329
SWIDTH 675 0
DWIDTH 11 0
BBX 9 11 1 0
BITMAP
C000
C000
4000
9B00
9F80
1980
1980
1980
1980
1980
1980
ENDCHAR
STARTCHAR Eng
ENCODING 330
SWIDTH 592 0
DWIDTH 9 0
BBX 8 11 1 0
BITMAP
DC
FE
E7
C3
C3
C3
C3
C3
C3
CE
DE
ENDCHAR
STARTCHAR eng
ENCODING 331
SWIDTH 500 0
DWIDTH 8 0
BBX 6 11 1 -3
BITMAP
F8
FC
CC
CC
CC
CC
CC
CC
0C
1C
18
ENDCHAR
STARTCHAR Omacron
ENCODING 332
SWIDTH 638 0
DWIDTH 10 0
BBX 9 14 1 0
BITMAP
3C00
3C00
0000
3C00
7E00
E300
C300
C180
C180
C180
C300
E300
7E00
3C00
ENDCHAR
STARTCHAR omacron
ENCODING 333
SWIDTH 500 0
DWIDTH 8 0
BBX 7 11 1 0
BITMAP
78
78
00
78
FC
CC
86
86
CC
FC
78
ENDCHAR
STARTCHAR Obreve
ENCODING 334
SWIDTH 638 0
DWIDTH 10 0
BBX 9 14 1 0
BITMAP
2400
1C00
0000
3C00
7E00
E300
C300
C180
C180
C180
C300
E300
7E00
3C00
ENDCHAR
STARTCHAR obreve
ENCODING 335
SWIDTH 500 0
DWIDTH 8 0
BBX 7 11 1 0
BITMAP
48
38
00
78
FC
CC
86
86
CC
FC
78
ENDCHAR
STARTCHAR Odblacute
ENCODING 336
SWIDTH 638 0
DWIDTH 10 0
BBX 9 14 1 0
BITMAP
1A00
1600
0000
3C00
7E00
E300
C300
C180
C180
C180
C300
E300
7E00
3C00
ENDCHAR
STARTCHAR odblacute
ENCODING 337
SWIDTH 500 0
DWIDTH 8 0
BBX 7 11 1 0
BITMAP
34
2C
00
78
FC
CC
86
86
CC
FC
78
ENDCHAR
STARTCHAR OE
ENCODING 338
SWIDTH 819 0
DWIDTH 13 0
BBX 13 11 0 0
BITMAP
3DF8
7FF8
6300
6300
41F0
C1F0
4100
6300
6300
7FF8
3DF8
ENDCHAR
STARTCHAR oe
ENCODING 339
SWIDTH 773 0
DWIDTH 12 0
BBX 11 8 1 0
BITMAP
7B80
FFC0
CE60
87E0
87E0
CE00
FFE0
7BC0
ENDCHAR
STARTCHAR Racute
ENCODING 340
SWIDTH 591 0
DWIDTH 9 0
BBX 8 14 1 0
BITMAP
18
30
00
FE
FE
C3
C3
FE
FC
CC
CE
C6
C7
C3
ENDCHAR
STARTCHAR racute
ENCODING 341
SWIDTH 318 0
DWIDTH 5 0
BBX 4 11 1 0
BITMAP
30
60
00
F0
F0
C0
C0
C0
C0
C0
C0
ENDCHAR
STARTCHAR Rcedilla
ENCODING 342
SWIDTH 591 0
DWIDTH 9 0
BBX 8 14 1 -3
BITMAP
FE
FE
C3
C3
FE
FC
CC
CE
C6
C7
C3
18
04
38
ENDCHAR
STARTCHAR rcedilla
ENCODING 343
SWIDTH 318 0
DWIDTH 5 0
BBX 4 11 1 -3
BITMAP
F0
F0
C0
C0
C0
C0
C0
C0
60
10
E0
ENDCHAR
STARTCHAR Rcaron
ENCODING 344
SWIDTH 591 0
DWIDTH 9 0
BBX 8 14 1 0
BITMAP
68
30
00
FE
FE
C3
C3
FE
FC
CC
CE
C6
C7
C3
ENDCHAR
STARTCHAR rcaron
ENCODING 345
SWIDTH 318 0
DWIDTH 5 0
BBX 4 11 1 0
BITMAP
D0
60
00
F0
F0
C0
C0
C0
C0
C0
C0
ENDCHAR
STARTCHAR Sacute
ENCODING 346
SWIDTH 546 0
DWIDTH 9 0
BBX 7 14 1 0
BITMAP
18
30
00
78
FC
CE
C6
F0
7C
0E
86
C6
FE
7C
ENDCHAR
STARTCHAR sacute
ENCODING 347
SWIDTH 456 0
DWIDTH 7 0
BBX 7 11 0 0
BITMAP
18
30
00
78
7C
44
7C
1E
C6
7C
38
ENDCHAR
STARTCHAR Scircumflex
ENCODING 348
SWIDTH 546 0
DWIDTH 9 0
BBX 7 14 1 0
BITMAP
30
68
00
78
FC
CE
C6
F0
7C
0E
86
C6
FE
7C
ENDCHAR
STARTCHAR scircumflex
ENCODING 349
SWIDTH 456 0
DWIDTH 7 0
BBX 7 11 0 0
BITMAP
30
68
00
78
7C
44
7C
1E
C6
7C
38
ENDCHAR
STARTCHAR Scedilla
ENCODING 350
SWIDTH 546 0
DWIDTH 9 0
BBX 7 14 1 -3
BITMAP
78
FC
CE
C6
F0
7C
0E
86
C6
FE
7C
30
08
70
ENDCHAR
STARTCHAR scedilla
ENCODING 351
SWIDTH 456 0
DWIDTH 7 0
BBX 7 11 0 -3
BITMAP
78
7C
44
7C
1E
C6
7C
38
30
08
70
ENDCHAR
STARTCHAR Scaron
ENCODING 352
SWIDTH 546 0
DWIDTH 9 0
BBX 7 14 1 0
BITMAP
68
30
00
78
FC
CE
C6
F0
7C
0E
86
C6
FE
7C
ENDCHAR
STARTCHAR scaron
ENCODING 353
SWIDTH 456 0
DWIDTH 7 0
BBX 7 11 0 0
BITMAP
68
30
00
78
7C
44
7C
1E
C6
7C
38
ENDCHAR
STARTCHAR Tcedilla
ENCODING 354
SWIDTH 500 0
DWIDTH 8 0
BBX 8 14 0 -3
BITMAP
FF
FF
18
18
18
18
18
18
18
18
18
18
04
38
ENDCHAR
STARTCHAR tcedilla
ENCODING 355
SWIDTH 272 0
DWIDTH 4 0
BBX 5 14 0 -3
BITMAP
20
60
60
F0
F0
60
60
60
60
70
70
30
08
70
ENDCHAR
STARTCHAR Tcaron
ENCODING 356
SWIDTH 500 0
DWIDTH 8 0
BBX 8 14 0 0
BITMAP
34
18
00
FF
FF
18
18
18
18
18
18
18
18
18
ENDCHAR
STARTCHAR tcaron
ENCODING 357
SWIDTH 393 0
DWIDTH 6 0
BBX 6 11 0 0
BITMAP
2C
6C
64
F8
F0
60
60
60
60
70
70
ENDCHAR
STARTCHAR Tbar
ENCODING 358
SWIDTH 500 0
DWIDTH 8 0
BBX 8 11 0 0
BITMAP
FF
FF
18
18
18
18
7E
7E
18
18
18
ENDCHAR
STARTCHAR tbar
ENCODING 359
SWIDTH 272 0
DWIDTH 4 0
BBX 4 11 0 0
BITMAP
20
60
60
F0
F0
60
F0
F0
60
70
70
ENDCHAR
STARTCHAR Utilde
ENCODING 360
SWIDTH 591 0
DWIDTH 9 0
BBX 7 14 1 0
BITMAP
34
2C
00
C2
C2
C2
C2
C2
C2
C2
C6
C6
7E
3C
ENDCHAR
STARTCHAR utilde
ENCODING 361
SWIDTH 500 0
DWIDTH 8 0
BBX 6 11 1 0
BITMAP
68
58
00
CC
CC
CC
CC
CC
CC
FC
6C
ENDCHAR
STARTCHAR Umacron
ENCODING 362
SWIDTH 591 0
DWIDTH 9 0
BBX 7 14 1 0
BITMAP
3C
3C
00
C2
C2
C2
C2
C2
C2
C2
C6
C6
7E
3C
ENDCHAR
STARTCHAR umacron
ENCODING 363
SWIDTH 500 0
DWIDTH 8 0
BBX 6 11 1 0
BITMAP
78
78
00
CC
CC
CC
CC
CC
CC
FC
6C
ENDCHAR
STARTCHAR Ubreve
ENCODING 364
SWIDTH 591 0
DWIDTH 9 0
BBX 7 14 1 0
BITMAP
24
1C
00
C2
C2
C2
C2
C2
C2
C2
C6
C6
7E
3C
ENDCHAR
STARTCHAR ubreve
ENCODING 365
SWIDTH 500 0
DWIDTH 8 0
BBX 6 11 1 0
BITMAP
48
38
00
CC
CC
CC
CC
CC
CC
FC
6C
ENDCHAR
STARTCHAR Uring
ENCODING 366
SWIDTH 591 0
DWIDTH 9 0
BBX 7 15 1 0
BITMAP
18
18
18
00
C2
C2
C2
C2
C2
C2
C2
C6
C6
7E
3C
ENDCHAR
STARTCHAR uring
ENCODING 367
SWIDTH 500 0
DWIDTH 8 0
BBX 6 12 1 0
BITMAP
30
30
30
00
CC
CC
CC
CC
CC
CC
FC
6C
ENDCHAR
STARTCHAR Udblacute
ENCODING 368
SWIDTH 591 0
DWIDTH 9 0
BBX 7 14 1 0
BITMAP
34
2C
00
C2
C2
C2
C2
C2
C2
C2
C6
C6
7E
3C
ENDCHAR
STARTCHAR udblacute
ENCODING 369
SWIDTH 500 0
DWIDTH 8 0
BBX 6 11 1 0
BITMAP
34
2C
00
CC
CC
CC
CC
CC
CC
FC
6C
ENDCHAR
STARTCHAR Uogonek
ENCODING 370
SWIDTH 591 0
DWIDTH 9 0
BBX 7 14 1 -3
BITMAP
C2
C2
C2
C2
C2
C2
C2
C6
C6
7E
3C
10
10
1C
ENDCHAR
STARTCHAR uogonek
ENCODING 371
SWIDTH 500 0
DWIDTH 8 0
BBX 7 11 1 -3
BITMAP
CC
CC
CC
CC
CC
CC
FC
6C
08
08
0E
ENDCHAR
STARTCHAR Wcircumflex
ENCODING 372
SWIDTH 773 0
DWIDTH 12 0
BBX 12 14 0 0
BITMAP
0600
0D00
0000
C630
C730
4730
6F30
6D20
6D60
69E0
29E0
38E0
38C0
30C0
ENDCHAR
STARTCHAR wcircumflex
ENCODING 373
SWIDTH 638 0
DWIDTH 10 0
BBX 10 11 0 0
BITMAP
0C00
1A00
0000
CCC0
CCC0
4EC0
7E80
7F80
3B80
3300
3300
ENDCHAR
STARTCHAR Ycircumflex
ENCODING 374
SWIDTH 546 0
DWIDTH 9 0
BBX 8 14 0 0
BITMAP
18
34
00
C3
63
76
36
3C
1C
18
18
18
18
18
ENDCHAR
STARTCHAR ycircumflex
ENCODING 375
SWIDTH 456 0
DWIDTH 7 0
BBX 7 14 0 -3
BITMAP
30
68
00
C6
46
64
6C
2C
38
38
38
30
70
60
ENDCHAR
STARTCHAR Ydieresis
ENCODING 376
SWIDTH 546 0
DWIDTH 9 0
BBX 8 14 0 0
BITMAP
34
34
00
C3
63
76
36
3C
1C
18
18
18
18
18
ENDCHAR
STARTCHAR Zacute
ENCODING 377
SWIDTH 500 0
DWIDTH 8 0
BBX 8 14 0 0
BITMAP
0C
18
00
7F
7F
06
0C
1C
18
30
70
E0
FF
FF
ENDCHAR
STARTCHAR zacute
ENCODING 378
SWIDTH 410 0
DWIDTH 7 0
BBX 6 11 0 0
BITMAP
18
30
00
FC
FC
18
38
30
60
FC
FC
ENDCHAR
STARTCHAR Zdot
ENCODING 379
SWIDTH 500 0
DWIDTH 8 0
BBX 8 14 0 0
BITMAP
18
18
00
7F
7F
06
0C
1C
18
30
70
E0
FF
FF
ENDCHAR
STARTCHAR zdot
ENCODING 380
SWIDTH 410 0
DWIDTH 7 0
BBX 6 11 0 0
BITMAP
30
30
00
FC
FC
18
38
30
60
FC
FC
ENDCHAR
STARTCHAR Zcaron
ENCODING 381
SWIDTH 500 0
DWIDTH 8 0
BBX 8 14 0 0
BITMAP
34
18
00
7F
7F
06
0C
1C
18
30
70
E0
FF
FF
ENDCHAR
STARTCHAR zcaron
ENCODING 382
SWIDTH 410 0
DWIDTH 7 0
BBX 6 11 0 0
BITMAP
68
30
00
FC
FC
18
38
30
60
FC
FC
ENDCHAR
STARTCHAR longs
ENCODING 383
SWIDTH 228 0
DWIDTH 4 0
BBX 3 11 1 0
BITMAP
60
E0
C0
C0
C0
C0
C0
C0
C0
C0
C0
ENDCHAR
STARTCHAR florin
ENCODING 402
SWIDTH 456 0
DWIDTH 7 0
BBX 7 14 0 -3
BITMAP
0E
0E
18
3C
3C
18
18
10
30
30
30
30
F0
E0
ENDCHAR
STARTCHAR Aringacute
ENCODING 506
SWIDTH 610 0
DWIDTH 10 0
BBX 9 18 0 0
BITMAP
0600
0C00
0000
0C00
0C00
0C00
0000
1C00
1C00
1E00
3600
3600
3700
7300
7F00
7F80
E180
C180
ENDCHAR
STARTCHAR aringacute
ENCODING 507
SWIDTH 500 0
DWIDTH 8 0
BBX 7 15 0 0
BITMAP
0C
18
00
30
30
30
00
3C
7C
64
1C
7C
C4
7C
76
ENDCHAR
STARTCHAR AEacute
ENCODING 508
SWIDTH 819 0
DWIDTH 13 0
BBX 12 14 0 0
BITMAP
0180
0300
0000
0FF0
1FF0
1B00
3300
33F0
23F0
7F00
7F00
C300
C3F0
C3F0
ENDCHAR
STARTCHAR aeacute
ENCODING 509
SWIDTH 729 0
DWIDTH 12 0
BBX 10 11 1 0
BITMAP
0C00
1800
0000
7F00
FF80
CCC0
3FC0
FFC0
8C00
FFC0
F780
ENDCHAR
STARTCHAR Oslashacute
ENCODING 510
SWIDTH 638 0
DWIDTH 10 0
BBX 9 14 1 0
BITMAP
0C00
1800
0000
3D00
7F00
E300
C700
CD80
D980
F180
E300
E300
FE00
BC00
ENDCHAR
STARTCHAR oslashacute
ENCODING 511
SWIDTH 500 0
DWIDTH 8 0
BBX 7 11 1 0
BITMAP
18
30
00
7C
FC
CC
96
A6
CC
FC
B8
ENDCHAR
STARTCHAR uni0218
ENCODING 536
SWIDTH 546 0
DWIDTH 9 0
BBX 7 16 1 -5
BITMAP
78
FC
CE
C6
F0
7C
0E
86
C6
FE
7C
00
30
30
10
20
ENDCHAR
STARTCHAR uni0219
ENCODING 537
SWIDTH 456 0
DWIDTH 7 0
BBX 7 13 0 -5
BITMAP
78
7C
44
7C
1E
C6
7C
38
00
30
30
10
20
ENDCHAR
STARTCHAR uni021A
ENCODING 538
SWIDTH 500 0
DWIDTH 8 0
BBX 8 16 0 -5
BITMAP
FF
FF
18
18
18
18
18
18
18
18
18
00
18
18
08
10
ENDCHAR
STARTCHAR uni021B
ENCODING 539
SWIDTH 272 0
DWIDTH 4 0
BBX 4 16 0 -5
BITMAP
20
60
60
F0
F0
60
60
60
60
70
70
00
60
60
20
40
ENDCHAR
STARTCHAR circumflex
ENCODING 710
SWIDTH 272 0
DWIDTH 4 0
BBX 4 2 0 9
BITMAP
60
D0
ENDCHAR
STARTCHAR caron
ENCODING 711
SWIDTH 272 0
DWIDTH 4 0
BBX 4 2 0 9
BITMAP
D0
60
ENDCHAR
STARTCHAR macron
ENCODING 713
SWIDTH 272 0
DWIDTH 4 0
BBX 4 2 0 10
BITMAP
F0
F0
ENDCHAR
STARTCHAR breve
ENCODING 728
SWIDTH 272 0
DWIDTH 4 0
BBX 4 2 0 9
BITMAP
90
70
ENDCHAR
STARTCHAR dotaccent
ENCODING 729
SWIDTH 272 0
DWIDTH 4 0
BBX 2 2 1 10
BITMAP
C0
C0
ENDCHAR
STARTCHAR ring
ENCODING 730
SWIDTH 272 0
DWIDTH 4 0
BBX 2 3 1 9
BITMAP
C0
C0
C0
ENDCHAR
STARTCHAR ogonek
ENCODING 731
SWIDTH 272 0
DWIDTH 4 0
BBX 3 3 1 -3
BITMAP
80
80
E0
ENDCHAR
STARTCHAR tilde
ENCODING 732
SWIDTH 272 0
DWIDTH 4 0
BBX 4 2 0 9
BITMAP
D0
B0
ENDCHAR
STARTCHAR hungarumlaut
ENCODING 733
SWIDTH 272 0
DWIDTH 4 0
BBX 4 2 1 9
BITMAP
D0
B0
ENDCHAR
STARTCHAR semicolon.dup2
ENCODING 894
SWIDTH 272 0
DWIDTH 4 0
BBX 2 11 1 -3
BITMAP
C0
C0
00
00
00
00
C0
C0
40
40
80
ENDCHAR
STARTCHAR tonos
ENCODING 900
SWIDTH 272 0
DWIDTH 4 0
BBX 3 2 1 9
BITMAP
60
C0
ENDCHAR
STARTCHAR dieresistonos
ENCODING 901
SWIDTH 272 0
DWIDTH 4 0
BBX 6 2 -1 9
BITMAP
10
F4
ENDCHAR
STARTCHAR Alphatonos
ENCODING 902
SWIDTH 591 0
DWIDTH 9 0
BBX 9 11 0 0
BITMAP
7C00
DC00
1E00
3600
3600
3700
7300
7F00
7F80
E180
C180
ENDCHAR
STARTCHAR anoteleia
ENCODING 903
SWIDTH 272 0
DWIDTH 4 0
BBX 2 2 1 6
BITMAP
C0
C0
ENDCHAR
STARTCHAR Epsilontonos
ENCODING 904
SWIDTH 700 0
DWIDTH 11 0
BBX 10 11 0 0
BITMAP
7FC0
DFC0
1800
1800
1FC0
1FC0
1800
1800
1800
1FC0
1FC0
ENDCHAR
STARTCHAR Etatonos
ENCODING 905
SWIDTH 743 0
DWIDTH 12 0
BBX 10 11 0 0
BITMAP
7840
D840
1840
1840
1FC0
1FC0
1840
1840
1840
1840
1840
ENDCHAR
STARTCHAR Iotatonos
ENCODING 906
SWIDTH 385 0
DWIDTH 6 0
BBX 6 11 0 0
BITMAP
6C
CC
0C
0C
0C
0C
0C
0C
0C
0C
0C
ENDCHAR
STARTCHAR Omicrontonos
ENCODING 908
SWIDTH 674 0
DWIDTH 11 0
BBX 12 11 -1 0
BITMAP
6780
CFC0
1C60
1860
1830
1830
1830
1860
1C60
0FC0
0780
ENDCHAR
STARTCHAR Upsilontonos
ENCODING 910
SWIDTH 760 0
DWIDTH 12 0
BBX 11 11 0 0
BITMAP
7860
CC60
0EC0
06C0
0780
0380
0300
0300
0300
0300
0300
ENDCHAR
STARTCHAR Omegatonos
ENCODING 911
SWIDTH 687 0
DWIDTH 11 0
BBX 11 11 -1 0
BITMAP
6F00
DFC0
38C0
30E0
3060
3060
3040
30C0
1880
3DE0
3DE0
ENDCHAR
STARTCHAR iotadieresistonos
ENCODING 912
SWIDTH 228 0
DWIDTH 4 0
BBX 6 11 -2 0
BITMAP
10
F4
00
18
18
18
18
18
18
18
18
ENDCHAR
STARTCHAR Alpha
ENCODING 913
SWIDTH 591 0
DWIDTH 9 0
BBX 9 11 0 0
BITMAP
1C00
1C00
1E00
3600
3600
3700
7300
7F00
7F80
E180
C180
ENDCHAR
STARTCHAR Beta
ENCODING 914
SWIDTH 591 0
DWIDTH 9 0
BBX 8 11 1 0
BITMAP
FC
FE
C6
C6
FE
FE
C3
C3
C3
FE
FE
ENDCHAR
STARTCHAR Gamma
ENCODING 915
SWIDTH 493 0
DWIDTH 8 0
BBX 7 11 1 0
BITMAP
FE
FE
C0
C0
C0
C0
C0
C0
C0
C0
C0
ENDCHAR
STARTCHAR Delta
ENCODING 916
SWIDTH 588 0
DWIDTH 9 0
BBX 9 11 0 0
BITMAP
1C00
1C00
1E00
3600
3600
3300
6300
6300
6180
FF80
FF80
ENDCHAR
STARTCHAR Epsilon
ENCODING 917
SWIDTH 546 0
DWIDTH 9 0
BBX 7 11 1 0
BITMAP
FE
FE
C0
C0
FE
FE
C0
C0
C0
FE
FE
ENDCHAR
STARTCHAR Zeta
ENCODING 918
SWIDTH 500 0
DWIDTH 8 0
BBX 8 11 0 0
BITMAP
7F
7F
06
0C
1C
18
30
70
E0
FF
FF
ENDCHAR
STARTCHAR Eta
ENCODING 919
SWIDTH 591 0
DWIDTH 9 0
BBX 7 11 1 0
BITMAP
C2
C2
C2
C2
FE
FE
C2
C2
C2
C2
C2
ENDCHAR
STARTCHAR Theta
ENCODING 920
SWIDTH 638 0
DWIDTH 10 0
BBX 9 11 1 0
BITMAP
3C00
7E00
E300
C300
C180
DD80
DD80
C300
E300
7E00
3C00
ENDCHAR
STARTCHAR Iota
ENCODING 921
SWIDTH 228 0
DWIDTH 4 0
BBX 2 11 1 0
BITMAP
C0
C0
C0
C0
C0
C0
C0
C0
C0
C0
C0
ENDCHAR
STARTCHAR Kappa
ENCODING 922
SWIDTH 591 0
DWIDTH 9 0
BBX 8 11 1 0
BITMAP
C7
C6
CC
D8
F8
F8
EC
CE
C6
C7
C3
ENDCHAR
STARTCHAR Lambda
ENCODING 923
SWIDTH 546 0
DWIDTH 9 0
BBX 9 11 0 0
BITMAP
1C00
1C00
1C00
3400
3600
3600
6600
6300
6300
C300
C180
ENDCHAR
STARTCHAR Mu
ENCODING 924
SWIDTH 683 0
DWIDTH 11 0
BBX 9 11 1 0
BITMAP
E380
E380
E380
E780
F780
F580
D580
D580
DD80
DD80
D980
ENDCHAR
STARTCHAR Nu
ENCODING 925
SWIDTH 591 0
DWIDTH 9 0
BBX 7 11 1 0
BITMAP
C2
E2
E2
F2
F2
DA
DA
CE
CE
C6
C6
ENDCHAR
STARTCHAR Xi
ENCODING 926
SWIDTH 527 0
DWIDTH 8 0
BBX 7 11 1 0
BITMAP
FE
FE
00
00
FC
FC
00
00
00
FE
FE
ENDCHAR
STARTCHAR Omicron
ENCODING 927
SWIDTH 638 0
DWIDTH 10 0
BBX 9 11 1 0
BITMAP
3C00
7E00
E300
C300
C180
C180
C180
C300
E300
7E00
3C00
ENDCHAR
STARTCHAR Pi
ENCODING 928
SWIDTH 591 0
DWIDTH 9 0
BBX 7 11 1 0
BITMAP
FE
FE
C2
C2
C2
C2
C2
C2
C2
C2
C2
ENDCHAR
STARTCHAR Rho
ENCODING 929
SWIDTH 546 0
DWIDTH 9 0
BBX 7 11 1 0
BITMAP
FC
FE
C6
C6
C6
FE
FC
C0
C0
C0
C0
ENDCHAR
STARTCHAR Sigma
ENCODING 931
SWIDTH 492 0
DWIDTH 8 0
BBX 6 11 1 0
BITMAP
FC
FC
C0
60
30
30
70
60
C0
FC
FC
ENDCHAR
STARTCHAR Tau
ENCODING 932
SWIDTH 500 0
DWIDTH 8 0
BBX 8 11 0 0
BITMAP
FF
FF
18
18
18
18
18
18
18
18
18
ENDCHAR
STARTCHAR Upsilon
ENCODING 933
SWIDTH 546 0
DWIDTH 9 0
BBX 8 11 0 0
BITMAP
C3
63
76
36
3C
1C
18
18
18
18
18
ENDCHAR
STARTCHAR Phi
ENCODING 934
SWIDTH 670 0
DWIDTH 11 0
BBX 9 11 1 0
BITMAP
1800
7E00
D900
D980
D980
D980
D980
D900
3E00
1800
1800
ENDCHAR
STARTCHAR Chi
ENCODING 935
SWIDTH 546 0
DWIDTH 9 0
BBX 8 11 0 0
BITMAP
63
67
36
3C
1C
1C
1C
36
76
63
E3
ENDCHAR
STARTCHAR Psi
ENCODING 936
SWIDTH 663 0
DWIDTH 11 0
BBX 9 11 1 0
BITMAP
9980
9980
9980
9980
D980
D980
FF00
7E00
1800
1800
1800
ENDCHAR
STARTCHAR Ohm
ENCODING 937
SWIDTH 657 0
DWIDTH 11 0
BBX 9 11 1 0
BITMAP
3C00
7F00
E300
C380
C180
C180
C100
C300
6200
F780
F780
ENDCHAR
STARTCHAR Iotadieresis
ENCODING 938
SWIDTH 228 0
DWIDTH 4 0
BBX 4 14 0 0
BITMAP
D0
D0
00
60
60
60
60
60
60
60
60
60
60
60
ENDCHAR
STARTCHAR Upsilondieresis
ENCODING 939
SWIDTH 546 0
DWIDTH 9 0
BBX 8 14 0 0
BITMAP
34
34
00
C3
63
76
36
3C
1C
18
18
18
18
18
ENDCHAR
STARTCHAR alphatonos
ENCODING 940
SWIDTH 503 0
DWIDTH 8 0
BBX 6 11 1 0
BITMAP
30
60
00
74
FC
CC
8C
8C
CC
FC
74
ENDCHAR
STARTCHAR epsilontonos
ENCODING 941
SWIDTH 389 0
DWIDTH 6 0
BBX 5 11 1 0
BITMAP
30
60
00
F8
F0
C0
60
E0
80
F0
F8
ENDCHAR
STARTCHAR etatonos
ENCODING 942
SWIDTH 500 0
DWIDTH 8 0
BBX 6 14 1 -3
BITMAP
30
60
00
F8
FC
CC
CC
CC
CC
CC
CC
0C
0C
0C
ENDCHAR
STARTCHAR iotatonos
ENCODING 943
SWIDTH 228 0
DWIDTH 4 0
BBX 3 11 1 0
BITMAP
60
C0
00
C0
C0
C0
C0
C0
C0
C0
C0
ENDCHAR
STARTCHAR upsilondieresistonos
ENCODING 944
SWIDTH 477 0
DWIDTH 8 0
BBX 6 11 1 0
BITMAP
10
F4
00
CC
CC
CC
CC
CC
CC
F8
78
ENDCHAR
STARTCHAR alpha
ENCODING 945
SWIDTH 503 0
DWIDTH 8 0
BBX 6 8 1 0
BITMAP
74
FC
CC
8C
8C
CC
FC
74
ENDCHAR
STARTCHAR beta
ENCODING 946
SWIDTH 500 0
DWIDTH 8 0
BBX 7 14 1 -3
BITMAP
78
FC
CC
CC
D0
CC
C4
C6
CC
FC
D8
C0
C0
C0
ENDCHAR
STARTCHAR gamma
ENCODING 947
SWIDTH 456 0
DWIDTH 7 0
BBX 7 11 0 -3
BITMAP
C6
46
64
6C
2C
38
38
18
18
18
18
ENDCHAR
STARTCHAR delta
ENCODING 948
SWIDTH 497 0
DWIDTH 8 0
BBX 6 11 1 0
BITMAP
FC
FC
60
78
FC
CC
84
84
CC
FC
78
ENDCHAR
STARTCHAR epsilon
ENCODING 949
SWIDTH 389 0
DWIDTH 6 0
BBX 5 8 1 0
BITMAP
F8
F0
C0
60
E0
80
F0
F8
ENDCHAR
STARTCHAR zeta
ENCODING 950
SWIDTH 376 0
DWIDTH 6 0
BBX 5 14 1 -3
BITMAP
F8
F8
30
60
40
C0
80
80
80
F0
78
18
38
30
ENDCHAR
STARTCHAR eta
ENCODING 951
SWIDTH 500 0
DWIDTH 8 0
BBX 6 11 1 -3
BITMAP
F8
FC
CC
CC
CC
CC
CC
CC
0C
0C
0C
ENDCHAR
STARTCHAR theta
ENCODING 952
SWIDTH 442 0
DWIDTH 7 0
BBX 6 11 1 0
BITMAP
70
F8
D8
88
FC
FC
8C
88
D8
F8
70
ENDCHAR
STARTCHAR iota
ENCODING 953
SWIDTH 228 0
DWIDTH 4 0
BBX 2 8 1 0
BITMAP
C0
C0
C0
C0
C0
C0
C0
C0
ENDCHAR
STARTCHAR kappa
ENCODING 954
SWIDTH 457 0
DWIDTH 7 0
BBX 6 8 1 0
BITMAP
DC
D8
F0
E0
F0
D8
D8
CC
ENDCHAR
STARTCHAR lambda
ENCODING 955
SWIDTH 456 0
DWIDTH 7 0
BBX 7 11 0 0
BITMAP
30
30
10
38
38
38
2C
6C
6C
46
C6
ENDCHAR
STARTCHAR mu
ENCODING 956
SWIDTH 500 0
DWIDTH 8 0
BBX 6 11 1 -3
BITMAP
CC
CC
CC
CC
CC
CC
FC
FC
C0
C0
C0
ENDCHAR
STARTCHAR nu
ENCODING 957
SWIDTH 456 0
DWIDTH 7 0
BBX 7 8 0 0
BITMAP
C6
46
6C
6C
2C
38
38
18
ENDCHAR
STARTCHAR xi
ENCODING 958
SWIDTH 365 0
DWIDTH 6 0
BBX 5 14 1 -3
BITMAP
70
F0
C0
C0
F0
70
C0
80
C0
F0
78
18
38
30
ENDCHAR
STARTCHAR omicron
ENCODING 959
SWIDTH 500 0
DWIDTH 8 0
BBX 7 8 1 0
BITMAP
78
FC
CC
86
86
CC
FC
78
ENDCHAR
STARTCHAR pi
ENCODING 960
SWIDTH 627 0
DWIDTH 10 0
BBX 10 8 0 0
BITMAP
FFC0
FFC0
3300
3300
3300
3300
3300
3300
ENDCHAR
STARTCHAR rho
ENCODING 961
SWIDTH 506 0
DWIDTH 8 0
BBX 7 11 1 -3
BITMAP
78
FC
CC
C6
C6
CC
FC
F8
C0
C0
C0
ENDCHAR
STARTCHAR sigma1
ENCODING 962
SWIDTH 425 0
DWIDTH 7 0
BBX 6 11 1 -3
BITMAP
3C
78
C0
80
80
C0
F8
38
08
38
30
ENDCHAR
STARTCHAR sigma
ENCODING 963
SWIDTH 561 0
DWIDTH 9 0
BBX 8 8 1 0
BITMAP
7F
FF
CC
86
86
CC
FC
78
ENDCHAR
STARTCHAR tau
ENCODING 964
SWIDTH 366 0
DWIDTH 6 0
BBX 6 8 0 0
BITMAP
FC
FC
30
30
30
30
30
30
ENDCHAR
STARTCHAR upsilon
ENCODING 965
SWIDTH 477 0
DWIDTH 8 0
BBX 6 8 1 0
BITMAP
CC
CC
CC
CC
CC
CC
F8
78
ENDCHAR
STARTCHAR phi
ENCODING 966
SWIDTH 586 0
DWIDTH 9 0
BBX 8 11 1 -3
BITMAP
7C
DE
9B
9B
9B
DF
FE
7C
18
18
18
ENDCHAR
STARTCHAR chi
ENCODING 967
SWIDTH 472 0
DWIDTH 8 0
BBX 7 11 0 -3
BITMAP
46
66
6C
3C
38
18
38
3C
6C
66
C6
ENDCHAR
STARTCHAR psi
ENCODING 968
SWIDTH 618 0
DWIDTH 10 0
BBX 8 11 1 -3
BITMAP
DB
DB
DB
DB
DB
DB
FF
7E
18
18
18
ENDCHAR
STARTCHAR omega
ENCODING 969
SWIDTH 692 0
DWIDTH 11 0
BBX 10 8 1 0
BITMAP
C180
C180
8880
88C0
88C0
DD80
F780
7700
ENDCHAR
STARTCHAR iotadieresis
ENCODING 970
SWIDTH 228 0
DWIDTH 4 0
BBX 4 11 0 0
BITMAP
D0
D0
00
60
60
60
60
60
60
60
60
ENDCHAR
STARTCHAR upsilondieresis
ENCODING 971
SWIDTH 477 0
DWIDTH 8 0
BBX 6 11 1 0
BITMAP
68
68
00
CC
CC
CC
CC
CC
CC
F8
78
ENDCHAR
STARTCHAR omicrontonos
ENCODING 972
SWIDTH 500 0
DWIDTH 8 0
BBX 7 11 1 0
BITMAP
18
30
00
78
FC
CC
86
86
CC
FC
78
ENDCHAR
STARTCHAR upsilontonos
ENCODING 973
SWIDTH 477 0
DWIDTH 8 0
BBX 6 11 1 0
BITMAP
30
60
00
CC
CC
CC
CC
CC
CC
F8
78
ENDCHAR
STARTCHAR omegatonos
ENCODING 974
SWIDTH 692 0
DWIDTH 11 0
BBX 10 11 1 0
BITMAP
0C00
1800
0000
C180
C180
8880
88C0
88C0
DD80
F780
7700
ENDCHAR
STARTCHAR pi1
ENCODING 982
SWIDTH 548 0
DWIDTH 9 0
BBX 9 8 0 0
BITMAP
FF80
FF80
7600
7600
7600
7600
7600
7600
ENDCHAR
STARTCHAR afii10023
ENCODING 1025
SWIDTH 546 0
DWIDTH 9 0
BBX 7 14 1 0
BITMAP
68
68
00
FE
FE
C0
C0
FE
FE
C0
C0
C0
FE
FE
ENDCHAR
STARTCHAR afii10051
ENCODING 1026
SWIDTH 726 0
DWIDTH 12 0
BBX 11 11 0 0
BITMAP
FF00
FF00
1800
1B80
1FC0
1C60
1860
1860
1860
19C0
19C0
ENDCHAR
STARTCHAR afii10052
ENCODING 1027
SWIDTH 493 0
DWIDTH 8 0
BBX 7 14 1 0
BITMAP
18
30
00
FE
FE
C0
C0
C0
C0
C0
C0
C0
C0
C0
ENDCHAR
STARTCHAR afii10053
ENCODING 1028
SWIDTH 583 0
DWIDTH 9 0
BBX 8 11 1 0
BITMAP
3C
7E
C6
C3
F8
F8
C0
C2
E7
7E
3C
ENDCHAR
STARTCHAR afii10054
ENCODING 1029
SWIDTH 546 0
DWIDTH 9 0
BBX 7 11 1 0
BITMAP
78
FC
CE
C6
F0
7C
0E
86
C6
FE
7C
ENDCHAR
STARTCHAR afii10055
ENCODING 1030
SWIDTH 228 0
DWIDTH 4 0
BBX 2 11 1 0
BITMAP
C0
C0
C0
C0
C0
C0
C0
C0
C0
C0
C0
ENDCHAR
STARTCHAR afii10056
ENCODING 1031
SWIDTH 228 0
DWIDTH 4 0
BBX 4 14 0 0
BITMAP
D0
D0
00
60
60
60
60
60
60
60
60
60
60
60
ENDCHAR
STARTCHAR afii10057
ENCODING 1032
SWIDTH 456 0
DWIDTH 7 0
BBX 6 11 0 0
BITMAP
0C
0C
0C
0C
0C
0C
0C
CC
CC
7C
38
ENDCHAR
STARTCHAR afii10058
ENCODING 1033
SWIDTH 896 0
DWIDTH 14 0
BBX 14 11 0 0
BITMAP
7F00
7F00
6300
6300
63F0
63F8
631C
630C
631C
E3F8
E3F0
ENDCHAR
STARTCHAR afii10059
ENCODING 1034
SWIDTH 872 0
DWIDTH 14 0
BBX 12 11 1 0
BITMAP
CC00
CC00
CC00
CC00
FFE0
FFF0
CC30
CC30
CC30
CFF0
CFE0
ENDCHAR
STARTCHAR afii10060
ENCODING 1035
SWIDTH 716 0
DWIDTH 11 0
BBX 11 11 0 0
BITMAP
FF00
FF00
1800
1800
1B80
1FC0
1CC0
1860
1860
1860
1860
ENDCHAR
STARTCHAR afii10061
ENCODING 1036
SWIDTH 500 0
DWIDTH 8 0
BBX 7 14 1 0
BITMAP
18
30
00
C6
CE
C8
D8
D8
F0
F8
D8
DC
CC
CE
ENDCHAR
STARTCHAR afii10062
ENCODING 1038
SWIDTH 509 0
DWIDTH 8 0
BBX 8 14 0 0
BITMAP
24
1C
00
C3
63
66
76
34
3C
1C
18
18
70
70
ENDCHAR
STARTCHAR afii10145
ENCODING 1039
SWIDTH 589 0
DWIDTH 9 0
BBX 7 14 1 -3
BITMAP
C2
C2
C2
C2
C2
C2
C2
C2
C2
FE
FE
10
10
10
ENDCHAR
STARTCHAR afii10017
ENCODING 1040
SWIDTH 591 0
DWIDTH 9 0
BBX 9 11 0 0
BITMAP
1C00
1C00
1E00
3600
3600
3700
7300
7F00
7F80
E180
C180
ENDCHAR
STARTCHAR afii10018
ENCODING 1041
SWIDTH 589 0
DWIDTH 9 0
BBX 8 11 1 0
BITMAP
FE
FE
C0
C0
FC
FE
C3
C3
C3
FE
FE
ENDCHAR
STARTCHAR afii10019
ENCODING 1042
SWIDTH 591 0
DWIDTH 9 0
BBX 8 11 1 0
BITMAP
FC
FE
C6
C6
FE
FE
C3
C3
C3
FE
FE
ENDCHAR
STARTCHAR afii10020
ENCODING 1043
SWIDTH 493 0
DWIDTH 8 0
BBX 7 11 1 0
BITMAP
FE
FE
C0
C0
C0
C0
C0
C0
C0
C0
C0
ENDCHAR
STARTCHAR afii10021
ENCODING 1044
SWIDTH 583 0
DWIDTH 9 0
BBX 9 14 0 -3
BITMAP
3F00
3F00
3300
2300
2300
2300
6300
6300
6300
FF80
FF80
C180
C180
C180
ENDCHAR
STARTCHAR afii10022
ENCODING 1045
SWIDTH 546 0
DWIDTH 9 0
BBX 7 11 1 0
BITMAP
FE
FE
C0
C0
FE
FE
C0
C0
C0
FE
FE
ENDCHAR
STARTCHAR afii10024
ENCODING 1046
SWIDTH 741 0
DWIDTH 12 0
BBX 12 11 0 0
BITMAP
E670
E670
36C0
36C0
3680
1F80
3F80
36C0
76C0
6660
E660
ENDCHAR
STARTCHAR afii10025
ENCODING 1047
SWIDTH 513 0
DWIDTH 8 0
BBX 8 11 0 0
BITMAP
3C
7E
E6
06
1C
1E
06
43
E6
7E
3C
ENDCHAR
STARTCHAR afii10026
ENCODING 1048
SWIDTH 589 0
DWIDTH 9 0
BBX 7 11 1 0
BITMAP
C6
C6
CE
CE
DA
DA
F2
F2
E2
E2
C2
ENDCHAR
STARTCHAR afii10027
ENCODING 1049
SWIDTH 589 0
DWIDTH 9 0
BBX 7 14 1 0
BITMAP
24
1C
00
C6
C6
CE
CE
DA
DA
F2
F2
E2
E2
C2
ENDCHAR
STARTCHAR afii10028
ENCODING 1050
SWIDTH 500 0
DWIDTH 8 0
BBX 7 11 1 0
BITMAP
C6
CE
C8
D8
D8
F0
F8
D8
DC
CC
CE
ENDCHAR
STARTCHAR afii10029
ENCODING 1051
SWIDTH 576 0
DWIDTH 9 0
BBX 8 11 0 0
BITMAP
3F
3F
33
33
33
33
33
33
23
E3
E3
ENDCHAR
STARTCHAR afii10030
ENCODING 1052
SWIDTH 683 0
DWIDTH 11 0
BBX 9 11 1 0
BITMAP
E380
E380
E380
E780
F780
F580
D580
D580
DD80
DD80
D980
ENDCHAR
STARTCHAR afii10031
ENCODING 1053
SWIDTH 591 0
DWIDTH 9 0
BBX 7 11 1 0
BITMAP
C2
C2
C2
C2
FE
FE
C2
C2
C2
C2
C2
ENDCHAR
STARTCHAR afii10032
ENCODING 1054
SWIDTH 638 0
DWIDTH 10 0
BBX 9 11 1 0
BITMAP
3C00
7E00
E300
C300
C180
C180
C180
C300
E300
7E00
3C00
ENDCHAR
STARTCHAR afii10033
ENCODING 1055
SWIDTH 591 0
DWIDTH 9 0
BBX 7 11 1 0
BITMAP
FE
FE
C2
C2
C2
C2
C2
C2
C2
C2
C2
ENDCHAR
STARTCHAR afii10034
ENCODING 1056
SWIDTH 546 0
DWIDTH 9 0
BBX 7 11 1 0
BITMAP
FC
FE
C6
C6
C6
FE
FC
C0
C0
C0
C0
ENDCHAR
STARTCHAR afii10035
ENCODING 1057
SWIDTH 591 0
DWIDTH 9 0
BBX 8 11 1 0
BITMAP
3C
7E
E7
C2
C0
C0
C0
C2
E7
7E
3C
ENDCHAR
STARTCHAR afii10036
ENCODING 1058
SWIDTH 500 0
DWIDTH 8 0
BBX 8 11 0 0
BITMAP
FF
FF
18
18
18
18
18
18
18
18
18
ENDCHAR
STARTCHAR afii10037
ENCODING 1059
SWIDTH 509 0
DWIDTH 8 0
BBX 8 11 0 0
BITMAP
C3
63
66
76
34
3C
1C
18
18
70
70
ENDCHAR
STARTCHAR afii10038
ENCODING 1060
SWIDTH 699 0
DWIDTH 11 0
BBX 10 11 1 0
BITMAP
0C00
3F00
FF80
CD80
CCC0
8CC0
CCC0
CD80
FF80
3F00
0C00
ENDCHAR
STARTCHAR afii10039
ENCODING 1061
SWIDTH 546 0
DWIDTH 9 0
BBX 8 11 0 0
BITMAP
63
67
36
3C
1C
1C
1C
36
76
63
E3
ENDCHAR
STARTCHAR afii10040
ENCODING 1062
SWIDTH 599 0
DWIDTH 10 0
BBX 8 14 1 -3
BITMAP
C2
C2
C2
C2
C2
C2
C2
C2
C2
FF
FF
01
01
01
ENDCHAR
STARTCHAR afii10041
ENCODING 1063
SWIDTH 576 0
DWIDTH 9 0
BBX 7 11 1 0
BITMAP
C6
C6
C6
C6
C6
FE
7E
06
06
06
06
ENDCHAR
STARTCHAR afii10042
ENCODING 1064
SWIDTH 824 0
DWIDTH 13 0
BBX 11 11 1 0
BITMAP
C660
C660
C660
C660
C660
C660
C660
C660
C660
FFE0
FFE0
ENDCHAR
STARTCHAR afii10043
ENCODING 1065
SWIDTH 835 0
DWIDTH 13 0
BBX 12 14 1 -3
BITMAP
C660
C660
C660
C660
C660
C660
C660
C660
C660
FFE0
FFF0
0030
0030
0030
ENDCHAR
STARTCHAR afii10044
ENCODING 1066
SWIDTH 712 0
DWIDTH 11 0
BBX 11 11 0 0
BITMAP
F800
F800
1800
1800
1F80
1FC0
1860
1860
1860
1FC0
1F80
ENDCHAR
STARTCHAR afii10045
ENCODING 1067
SWIDTH 817 0
DWIDTH 13 0
BBX 11 11 1 0
BITMAP
C060
C060
C060
C060
FC60
FE60
C360
C360
C360
FE60
FE60
ENDCHAR
STARTCHAR afii10046
ENCODING 1068
SWIDTH 589 0
DWIDTH 9 0
BBX 8 11 1 0
BITMAP
C0
C0
C0
C0
FC
FE
C3
C3
C3
FE
FE
ENDCHAR
STARTCHAR afii10047
ENCODING 1069
SWIDTH 583 0
DWIDTH 9 0
BBX 8 11 1 0
BITMAP
78
FE
C6
C3
1F
1F
03
C7
C6
FE
7C
ENDCHAR
STARTCHAR afii10048
ENCODING 1070
SWIDTH 845 0
DWIDTH 14 0
BBX 12 11 1 0
BITMAP
C3C0
C7E0
CC60
CC30
D830
F830
F830
DC30
CC60
CFE0
C7C0
ENDCHAR
STARTCHAR afii10049
ENCODING 1071
SWIDTH 591 0
DWIDTH 9 0
BBX 8 11 0 0
BITMAP
7F
7F
C3
C3
7F
3F
33
73
63
E3
C3
ENDCHAR
STARTCHAR afii10065
ENCODING 1072
SWIDTH 456 0
DWIDTH 7 0
BBX 7 8 0 0
BITMAP
3C
7C
64
1C
7C
C4
7C
76
ENDCHAR
STARTCHAR afii10066
ENCODING 1073
SWIDTH 506 0
DWIDTH 8 0
BBX 7 11 1 0
BITMAP
7C
FC
C0
B8
FC
CC
86
86
CC
FC
78
ENDCHAR
STARTCHAR afii10067
ENCODING 1074
SWIDTH 503 0
DWIDTH 8 0
BBX 7 8 1 0
BITMAP
FC
FC
C4
F8
FC
C6
FC
FC
ENDCHAR
STARTCHAR afii10068
ENCODING 1075
SWIDTH 341 0
DWIDTH 5 0
BBX 4 8 1 0
BITMAP
F0
F0
C0
C0
C0
C0
C0
C0
ENDCHAR
STARTCHAR afii10069
ENCODING 1076
SWIDTH 520 0
DWIDTH 8 0
BBX 8 10 0 -2
BITMAP
3E
3E
22
22
62
62
FF
FF
81
81
ENDCHAR
STARTCHAR afii10070
ENCODING 1077
SWIDTH 456 0
DWIDTH 7 0
BBX 7 8 0 0
BITMAP
38
7C
46
FE
C0
66
7C
38
ENDCHAR
STARTCHAR afii10072
ENCODING 1078
SWIDTH 581 0
DWIDTH 9 0
BBX 9 8 0 0
BITMAP
CD80
ED80
2F00
3E00
3F00
6F00
6D80
CD80
ENDCHAR
STARTCHAR afii10073
ENCODING 1079
SWIDTH 408 0
DWIDTH 7 0
BBX 6 8 0 0
BITMAP
38
7C
CC
18
1C
CC
7C
78
ENDCHAR
STARTCHAR afii10074
ENCODING 1080
SWIDTH 503 0
DWIDTH 8 0
BBX 6 8 1 0
BITMAP
CC
CC
DC
FC
FC
EC
CC
CC
ENDCHAR
STARTCHAR afii10075
ENCODING 1081
SWIDTH 500 0
DWIDTH 8 0
BBX 6 11 1 0
BITMAP
48
38
00
CC
CC
DC
FC
FC
EC
CC
CC
ENDCHAR
STARTCHAR afii10076
ENCODING 1082
SWIDTH 410 0
DWIDTH 7 0
BBX 5 8 1 0
BITMAP
C8
D8
F0
E0
F0
F0
D8
D8
ENDCHAR
STARTCHAR afii10077
ENCODING 1083
SWIDTH 520 0
DWIDTH 8 0
BBX 7 8 0 0
BITMAP
7E
7E
62
62
62
62
E2
E2
ENDCHAR
STARTCHAR afii10078
ENCODING 1084
SWIDTH 606 0
DWIDTH 10 0
BBX 8 8 1 0
BITMAP
C7
E7
E7
E7
FF
FB
DB
DB
ENDCHAR
STARTCHAR afii10079
ENCODING 1085
SWIDTH 495 0
DWIDTH 8 0
BBX 6 8 1 0
BITMAP
CC
CC
CC
FC
FC
CC
CC
CC
ENDCHAR
STARTCHAR afii10080
ENCODING 1086
SWIDTH 500 0
DWIDTH 8 0
BBX 7 8 1 0
BITMAP
78
FC
CC
86
86
CC
FC
78
ENDCHAR
STARTCHAR afii10081
ENCODING 1087
SWIDTH 495 0
DWIDTH 8 0
BBX 6 8 1 0
BITMAP
FC
FC
CC
CC
CC
CC
CC
CC
ENDCHAR
STARTCHAR afii10082
ENCODING 1088
SWIDTH 500 0
DWIDTH 8 0
BBX 7 11 1 -3
BITMAP
F8
FC
CC
C6
C6
CC
FC
F8
C0
C0
C0
ENDCHAR
STARTCHAR afii10083
ENCODING 1089
SWIDTH 456 0
DWIDTH 7 0
BBX 6 8 1 0
BITMAP
78
F8
CC
80
80
CC
F8
78
ENDCHAR
STARTCHAR afii10084
ENCODING 1090
SWIDTH 401 0
DWIDTH 6 0
BBX 6 8 0 0
BITMAP
FC
FC
30
30
30
30
30
30
ENDCHAR
STARTCHAR afii10085
ENCODING 1091
SWIDTH 456 0
DWIDTH 7 0
BBX 7 11 0 -3
BITMAP
C6
46
64
6C
2C
38
38
38
30
70
60
ENDCHAR
STARTCHAR afii10086
ENCODING 1092
SWIDTH 716 0
DWIDTH 11 0
BBX 10 14 1 -3
BITMAP
0C00
0C00
0C00
6F80
FF80
DCC0
8CC0
8CC0
DCC0
FF80
6F80
0C00
0C00
0C00
ENDCHAR
STARTCHAR afii10087
ENCODING 1093
SWIDTH 456 0
DWIDTH 7 0
BBX 7 8 0 0
BITMAP
E6
6C
38
38
38
3C
6C
C6
ENDCHAR
STARTCHAR afii10088
ENCODING 1094
SWIDTH 503 0
DWIDTH 8 0
BBX 7 10 1 -2
BITMAP
CC
CC
CC
CC
CC
CC
FE
FE
06
06
ENDCHAR
STARTCHAR afii10089
ENCODING 1095
SWIDTH 476 0
DWIDTH 8 0
BBX 6 8 1 0
BITMAP
CC
CC
CC
FC
7C
0C
0C
0C
ENDCHAR
STARTCHAR afii10090
ENCODING 1096
SWIDTH 683 0
DWIDTH 11 0
BBX 9 8 1 0
BITMAP
C980
C980
C980
C980
C980
C980
FF80
FF80
ENDCHAR
STARTCHAR afii10091
ENCODING 1097
SWIDTH 691 0
DWIDTH 11 0
BBX 10 10 1 -2
BITMAP
C980
C980
C980
C980
C980
C980
FFC0
FFC0
00C0
00C0
ENDCHAR
STARTCHAR afii10092
ENCODING 1098
SWIDTH 598 0
DWIDTH 10 0
BBX 9 8 0 0
BITMAP
F000
F000
3000
3F00
3F80
3180
3F80
3F00
ENDCHAR
STARTCHAR afii10093
ENCODING 1099
SWIDTH 731 0
DWIDTH 12 0
BBX 10 8 1 0
BITMAP
C0C0
C0C0
C0C0
FCC0
FCC0
C6C0
FCC0
FCC0
ENDCHAR
STARTCHAR afii10094
ENCODING 1100
SWIDTH 503 0
DWIDTH 8 0
BBX 7 8 1 0
BITMAP
C0
C0
C0
FC
FC
C6
FC
FC
ENDCHAR
STARTCHAR afii10095
ENCODING 1101
SWIDTH 453 0
DWIDTH 7 0
BBX 7 8 0 0
BITMAP
38
7C
46
1E
06
CE
7C
38
ENDCHAR
STARTCHAR afii10096
ENCODING 1102
SWIDTH 700 0
DWIDTH 11 0
BBX 10 8 1 0
BITMAP
C700
CF80
D8C0
F8C0
F8C0
D9C0
CF80
C700
ENDCHAR
STARTCHAR afii10097
ENCODING 1103
SWIDTH 478 0
DWIDTH 8 0
BBX 7 8 0 0
BITMAP
7E
7E
46
7E
7E
36
66
C6
ENDCHAR
STARTCHAR afii10071
ENCODING 1105
SWIDTH 456 0
DWIDTH 7 0
BBX 7 11 0 0
BITMAP
68
68
00
38
7C
46
FE
C0
66
7C
38
ENDCHAR
STARTCHAR afii10099
ENCODING 1106
SWIDTH 500 0
DWIDTH 8 0
BBX 7 14 0 -3
BITMAP
60
F8
60
6C
7E
66
66
66
66
66
66
06
0E
0E
ENDCHAR
STARTCHAR afii10100
ENCODING 1107
SWIDTH 341 0
DWIDTH 5 0
BBX 4 11 1 0
BITMAP
30
60
00
F0
F0
C0
C0
C0
C0
C0
C0
ENDCHAR
STARTCHAR afii10101
ENCODING 1108
SWIDTH 453 0
DWIDTH 7 0
BBX 6 8 1 0
BITMAP
78
FC
C0
E0
E0
CC
F8
78
ENDCHAR
STARTCHAR afii10102
ENCODING 1109
SWIDTH 456 0
DWIDTH 7 0
BBX 7 8 0 0
BITMAP
78
7C
44
7C
1E
C6
7C
38
ENDCHAR
STARTCHAR afii10103
ENCODING 1110
SWIDTH 228 0
DWIDTH 4 0
BBX 2 11 1 0
BITMAP
C0
C0
00
C0
C0
C0
C0
C0
C0
C0
C0
ENDCHAR
STARTCHAR afii10104
ENCODING 1111
SWIDTH 228 0
DWIDTH 4 0
BBX 4 11 0 0
BITMAP
D0
D0
00
60
60
60
60
60
60
60
60
ENDCHAR
STARTCHAR afii10105
ENCODING 1112
SWIDTH 228 0
DWIDTH 4 0
BBX 4 14 -1 -3
BITMAP
30
30
00
30
30
30
30
30
30
30
30
30
70
E0
ENDCHAR
STARTCHAR afii10106
ENCODING 1113
SWIDTH 794 0
DWIDTH 13 0
BBX 12 8 0 0
BITMAP
7E00
7E00
6200
63E0
63F0
6230
E3F0
E3E0
ENDCHAR
STARTCHAR afii10107
ENCODING 1114
SWIDTH 743 0
DWIDTH 12 0
BBX 10 8 1 0
BITMAP
CC00
CC00
CC00
FFC0
FFC0
CC40
CFC0
CFC0
ENDCHAR
STARTCHAR afii10108
ENCODING 1115
SWIDTH 500 0
DWIDTH 8 0
BBX 7 11 0 0
BITMAP
60
F8
60
6C
7E
66
66
66
66
66
66
ENDCHAR
STARTCHAR afii10109
ENCODING 1116
SWIDTH 410 0
DWIDTH 7 0
BBX 5 11 0 0
BITMAP
30
60
00
C8
D8
F0
E0
F0
F0
D8
D8
ENDCHAR
STARTCHAR afii10110
ENCODING 1118
SWIDTH 456 0
DWIDTH 7 0
BBX 7 14 0 -3
BITMAP
24
1C
00
C6
46
64
6C
2C
38
38
38
30
70
60
ENDCHAR
STARTCHAR afii10193
ENCODING 1119
SWIDTH 495 0
DWIDTH 8 0
BBX 6 11 1 -3
BITMAP
CC
CC
CC
CC
CC
CC
FC
FC
30
30
30
ENDCHAR
STARTCHAR afii10050
ENCODING 1168
SWIDTH 453 0
DWIDTH 7 0
BBX 6 14 1 0
BITMAP
04
04
04
FC
FC
C0
C0
C0
C0
C0
C0
C0
C0
C0
ENDCHAR
STARTCHAR afii10098
ENCODING 1169
SWIDTH 341 0
DWIDTH 5 0
BBX 4 10 1 0
BITMAP
10
10
F0
F0
C0
C0
C0
C0
C0
C0
ENDCHAR
STARTCHAR Wgrave
ENCODING 7808
SWIDTH 773 0
DWIDTH 12 0
BBX 12 14 0 0
BITMAP
0600
0200
0000
C630
C730
4730
6F30
6D20
6D60
69E0
29E0
38E0
38C0
30C0
ENDCHAR
STARTCHAR wgrave
ENCODING 7809
SWIDTH 638 0
DWIDTH 10 0
BBX 10 11 0 0
BITMAP
0C00
0400
0000
CCC0
CCC0
4EC0
7E80
7F80
3B80
3300
3300
ENDCHAR
STARTCHAR Wacute
ENCODING 7810
SWIDTH 773 0
DWIDTH 12 0
BBX 12 14 0 0
BITMAP
0300
0600
0000
C630
C730
4730
6F30
6D20
6D60
69E0
29E0
38E0
38C0
30C0
ENDCHAR
STARTCHAR wacute
ENCODING 7811
SWIDTH 638 0
DWIDTH 10 0
BBX 10 11 0 0
BITMAP
0600
0C00
0000
CCC0
CCC0
4EC0
7E80
7F80
3B80
3300
3300
ENDCHAR
STARTCHAR Wdieresis
ENCODING 7812
SWIDTH 773 0
DWIDTH 12 0
BBX 12 14 0 0
BITMAP
0D00
0D00
0000
C630
C730
4730
6F30
6D20
6D60
69E0
29E0
38E0
38C0
30C0
ENDCHAR
STARTCHAR wdieresis
ENCODING 7813
SWIDTH 638 0
DWIDTH 10 0
BBX 10 11 0 0
BITMAP
1A00
1A00
0000
CCC0
CCC0
4EC0
7E80
7F80
3B80
3300
3300
ENDCHAR
STARTCHAR Ygrave
ENCODING 7922
SWIDTH 546 0
DWIDTH 9 0
BBX 8 14 0 0
BITMAP
18
08
00
C3
63
76
36
3C
1C
18
18
18
18
18
ENDCHAR
STARTCHAR ygrave
ENCODING 7923
SWIDTH 456 0
DWIDTH 7 0
BBX 7 14 0 -3
BITMAP
18
08
00
C6
46
64
6C
2C
38
38
38
30
70
60
ENDCHAR
STARTCHAR endash
ENCODING 8211
SWIDTH 456 0
DWIDTH 7 0
BBX 7 2 0 3
BITMAP
FE
FE
ENDCHAR
STARTCHAR emdash
ENCODING 8212
SWIDTH 819 0
DWIDTH 13 0
BBX 13 2 0 3
BITMAP
FFF8
FFF8
ENDCHAR
STARTCHAR afii00208
ENCODING 8213
SWIDTH 819 0
DWIDTH 13 0
BBX 9 2 2 3
BITMAP
FF80
FF80
ENDCHAR
STARTCHAR underscoredbl
ENCODING 8215
SWIDTH 500 0
DWIDTH 8 0
BBX 8 1 0 -3
BITMAP
FF
ENDCHAR
STARTCHAR quoteleft
ENCODING 8216
SWIDTH 228 0
DWIDTH 4 0
BBX 2 5 1 6
BITMAP
40
80
80
C0
C0
ENDCHAR
STARTCHAR quoteright
ENCODING 8217
SWIDTH 228 0
DWIDTH 4 0
BBX 2 5 1 6
BITMAP
C0
C0
40
80
80
ENDCHAR
STARTCHAR quotesinglbase
ENCODING 8218
SWIDTH 228 0
DWIDTH 4 0
BBX 2 5 1 -3
BITMAP
C0
C0
40
80
80
ENDCHAR
STARTCHAR quotereversed
ENCODING 8219
SWIDTH 228 0
DWIDTH 4 0
BBX 2 5 1 6
BITMAP
C0
C0
80
80
40
ENDCHAR
STARTCHAR quotedblleft
ENCODING 8220
SWIDTH 410 0
DWIDTH 7 0
BBX 5 5 1 6
BITMAP
48
90
90
D8
D8
ENDCHAR
STARTCHAR quotedblright
ENCODING 8221
SWIDTH 410 0
DWIDTH 7 0
BBX 5 5 1 6
BITMAP
D8
D8
48
90
90
ENDCHAR
STARTCHAR quotedblbase
ENCODING 8222
SWIDTH 410 0
DWIDTH 7 0
BBX 5 5 1 -3
BITMAP
D8
D8
48
90
90
ENDCHAR
STARTCHAR dagger
ENCODING 8224
SWIDTH 456 0
DWIDTH 7 0
BBX 7 14 0 -3
BITMAP
10
10
10
FE
FE
10
10
10
10
10
10
10
10
10
ENDCHAR
STARTCHAR daggerdbl
ENCODING 8225
SWIDTH 456 0
DWIDTH 7 0
BBX 7 14 0 -3
BITMAP
10
10
10
FE
FE
10
10
10
10
FE
FE
10
10
10
ENDCHAR
STARTCHAR bullet
ENCODING 8226
SWIDTH 287 0
DWIDTH 5 0
BBX 4 5 0 3
BITMAP
60
70
F0
70
60
ENDCHAR
STARTCHAR ellipsis
ENCODING 8230
SWIDTH 819 0
DWIDTH 13 0
BBX 11 2 1 0
BITMAP
C460
C460
ENDCHAR
STARTCHAR perthousand
ENCODING 8240
SWIDTH 819 0
DWIDTH 13 0
BBX 13 11 0 0
BITMAP
6200
B400
B400
BC00
B800
6B30
1FA8
14E8
14E8
37A8
2330
ENDCHAR
STARTCHAR minute
ENCODING 8242
SWIDTH 194 0
DWIDTH 3 0
BBX 2 4 1 7
BITMAP
C0
C0
80
80
ENDCHAR
STARTCHAR second
ENCODING 8243
SWIDTH 389 0
DWIDTH 6 0
BBX 5 4 1 7
BITMAP
D8
D8
D0
90
ENDCHAR
STARTCHAR guilsinglleft
ENCODING 8249
SWIDTH 272 0
DWIDTH 4 0
BBX 4 7 0 1
BITMAP
30
20
60
C0
60
20
30
ENDCHAR
STARTCHAR guilsinglright
ENCODING 8250
SWIDTH 272 0
DWIDTH 4 0
BBX 3 7 1 1
BITMAP
80
C0
40
60
40
C0
80
ENDCHAR
STARTCHAR exclamdbl
ENCODING 8252
SWIDTH 545 0
DWIDTH 9 0
BBX 7 11 1 0
BITMAP
C6
C6
C6
C4
C4
C4
44
44
00
C4
C4
ENDCHAR
STARTCHAR radicalex
ENCODING 8254
SWIDTH 272 0
DWIDTH 4 0
BBX 4 1 0 10
BITMAP
F0
ENDCHAR
STARTCHAR fraction
ENCODING 8260
SWIDTH 137 0
DWIDTH 2 0
BBX 6 11 -2 0
BITMAP
04
04
08
08
10
10
20
20
40
40
80
ENDCHAR
STARTCHAR foursuperior
ENCODING 8308
SWIDTH 272 0
DWIDTH 4 0
BBX 4 6 0 6
BITMAP
30
30
70
F0
F0
30
ENDCHAR
STARTCHAR fivesuperior
ENCODING 8309
SWIDTH 272 0
DWIDTH 4 0
BBX 3 6 1 6
BITMAP
E0
80
E0
20
20
E0
ENDCHAR
STARTCHAR sevensuperior
ENCODING 8311
SWIDTH 272 0
DWIDTH 4 0
BBX 4 6 0 6
BITMAP
F0
30
20
60
40
40
ENDCHAR
STARTCHAR eightsuperior
ENCODING 8312
SWIDTH 272 0
DWIDTH 4 0
BBX 4 6 0 6
BITMAP
70
D0
60
D0
D0
70
ENDCHAR
STARTCHAR nsuperior
ENCODING 8319
SWIDTH 325 0
DWIDTH 5 0
BBX 4 5 1 6
BITMAP
E0
B0
B0
B0
B0
ENDCHAR
STARTCHAR franc
ENCODING 8355
SWIDTH 503 0
DWIDTH 8 0
BBX 7 11 0 0
BITMAP
7E
7E
60
60
7E
7E
60
F8
F8
60
60
ENDCHAR
STARTCHAR afii08941
ENCODING 8356
SWIDTH 456 0
DWIDTH 7 0
BBX 7 11 0 0
BITMAP
38
7C
64
66
F8
60
F8
60
72
FE
8E
ENDCHAR
STARTCHAR peseta
ENCODING 8359
SWIDTH 960 0
DWIDTH 15 0
BBX 14 11 1 0
BITMAP
F000
FB00
DF38
CFF8
DFCC
FB60
FB78
C31C
C34C
C3FC
C1F8
ENDCHAR
STARTCHAR Euro
ENCODING 8364
SWIDTH 456 0
DWIDTH 7 0
BBX 7 11 0 0
BITMAP
1C
3E
72
60
FC
60
FC
60
72
3E
1C
ENDCHAR
STARTCHAR afii61248
ENCODING 8453
SWIDTH 789 0
DWIDTH 13 0
BBX 11 12 1 0
BITMAP
E000
B100
8100
8200
B200
E400
05C0
0960
0B20
1320
1160
21C0
ENDCHAR
STARTCHAR afii61289
ENCODING 8467
SWIDTH 490 0
DWIDTH 8 0
BBX 7 11 0 0
BITMAP
1C
3E
36
36
7E
7C
F0
70
32
3E
1C
ENDCHAR
STARTCHAR afii61352
ENCODING 8470
SWIDTH 914 0
DWIDTH 15 0
BBX 13 11 1 0
BITMAP
C200
E200
E270
F2F8
F2D8
DAD8
DAF8
CE70
CEF8
C6F8
C600
ENDCHAR
STARTCHAR trademark
ENCODING 8482
SWIDTH 819 0
DWIDTH 13 0
BBX 11 6 1 5
BITMAP
FE60
26E0
25E0
25E0
25E0
2560
ENDCHAR
STARTCHAR glyph526
ENCODING 8486
SWIDTH 768 0
DWIDTH 12 0
BBX 12 11 0 0
BITMAP
1F80
3FC0
70E0
6070
6070
6070
6070
7060
38C0
F9F0
F9F0
ENDCHAR
STARTCHAR estimated
ENCODING 8494
SWIDTH 600 0
DWIDTH 10 0
BBX 8 9 1 0
BITMAP
3C
42
C2
C3
FF
C0
C2
42
3C
ENDCHAR
STARTCHAR oneeighth
ENCODING 8539
SWIDTH 684 0
DWIDTH 11 0
BBX 9 12 1 0
BITMAP
4000
C200
4200
4400
4400
4800
0B80
1680
1300
2680
2680
4380
ENDCHAR
STARTCHAR threeeighths
ENCODING 8540
SWIDTH 684 0
DWIDTH 11 0
BBX 10 12 0 0
BITMAP
6000
D100
2100
1200
D200
6400
05C0
0B40
0980
1340
1340
21C0
ENDCHAR
STARTCHAR fiveeighths
ENCODING 8541
SWIDTH 684 0
DWIDTH 11 0
BBX 9 12 1 0
BITMAP
E000
8200
E200
2400
2400
E800
0B80
1680
1300
2680
2680
4380
ENDCHAR
STARTCHAR seveneighths
ENCODING 8542
SWIDTH 684 0
DWIDTH 11 0
BBX 10 12 0 0
BITMAP
F000
3100
2100
6200
4200
4400
05C0
0B40
0980
1340
1340
21C0
ENDCHAR
STARTCHAR arrowleft
ENCODING 8592
SWIDTH 1000 0
DWIDTH 16 0
BBX 14 4 1 2
BITMAP
2000
C000
FFFC
2000
ENDCHAR
STARTCHAR arrowup
ENCODING 8593
SWIDTH 500 0
DWIDTH 8 0
BBX 6 13 1 -3
BITMAP
30
78
EC
20
20
20
20
20
20
20
20
20
20
ENDCHAR
STARTCHAR arrowright
ENCODING 8594
SWIDTH 1000 0
DWIDTH 16 0
BBX 14 4 1 2
BITMAP
0010
000C
FFFC
0010
ENDCHAR
STARTCHAR arrowdown
ENCODING 8595
SWIDTH 500 0
DWIDTH 8 0
BBX 4 13 2 -3
BITMAP
40
40
40
40
40
40
40
40
40
40
D0
60
60
ENDCHAR
STARTCHAR arrowboth
ENCODING 8596
SWIDTH 1000 0
DWIDTH 16 0
BBX 14 5 1 2
BITMAP
2010
6018
C00C
FFFC
2010
ENDCHAR
STARTCHAR arrowupdn
ENCODING 8597
SWIDTH 500 0
DWIDTH 8 0
BBX 6 14 1 -3
BITMAP
30
78
EC
20
20
20
20
20
20
20
20
68
30
30
ENDCHAR
STARTCHAR arrowupdnbse
ENCODING 8616
SWIDTH 500 0
DWIDTH 8 0
BBX 6 16 1 -5
BITMAP
30
78
EC
20
20
20
20
20
20
20
20
68
30
30
00
FC
ENDCHAR
STARTCHAR partialdiff
ENCODING 8706
SWIDTH 494 0
DWIDTH 8 0
BBX 8 11 0 0
BITMAP
1C
3E
22
03
1F
3F
62
C2
C6
7C
78
ENDCHAR
STARTCHAR increment
ENCODING 8710
SWIDTH 611 0
DWIDTH 10 0
BBX 9 10 0 0
BITMAP
0C00
0C00
1600
1600
2200
2300
4100
4180
8080
FF80
ENDCHAR
STARTCHAR product
ENCODING 8719
SWIDTH 823 0
DWIDTH 13 0
BBX 11 14 1 -3
BITMAP
FFE0
FFE0
C060
C060
C060
C060
C060
C060
C060
C060
C060
C060
C060
C060
ENDCHAR
STARTCHAR summation
ENCODING 8721
SWIDTH 712 0
DWIDTH 11 0
BBX 10 14 1 -3
BITMAP
FFC0
FFC0
6000
3000
1800
0C00
0600
0C00
1800
3000
6000
C000
FFC0
FFC0
ENDCHAR
STARTCHAR minus
ENCODING 8722
SWIDTH 479 0
DWIDTH 8 0
BBX 6 2 1 5
BITMAP
FC
FC
ENDCHAR
STARTCHAR fraction.dup3
ENCODING 8725
SWIDTH 137 0
DWIDTH 2 0
BBX 6 11 -2 0
BITMAP
04
04
08
08
10
10
20
20
40
40
80
ENDCHAR
STARTCHAR periodcentered
ENCODING 8729
SWIDTH 228 0
DWIDTH 4 0
BBX 2 2 1 4
BITMAP
C0
C0
ENDCHAR
STARTCHAR radical
ENCODING 8730
SWIDTH 548 0
DWIDTH 9 0
BBX 8 15 1 -1
BITMAP
01
01
02
02
02
02
42
A2
24
14
14
1C
0C
0C
08
ENDCHAR
STARTCHAR infinity
ENCODING 8734
SWIDTH 712 0
DWIDTH 11 0
BBX 9 5 1 3
BITMAP
6700
9C80
8880
9C80
6700
ENDCHAR
STARTCHAR orthogonal
ENCODING 8735
SWIDTH 979 0
DWIDTH 16 0
BBX 10 10 3 0
BITMAP
8000
8000
8000
8000
8000
8000
8000
8000
8000
FFC0
ENDCHAR
STARTCHAR intersection
ENCODING 8745
SWIDTH 722 0
DWIDTH 12 0
BBX 8 11 2 0
BITMAP
38
46
81
81
81
81
81
01
01
01
01
ENDCHAR
STARTCHAR integral
ENCODING 8747
SWIDTH 273 0
DWIDTH 4 0
BBX 4 16 0 -1
BITMAP
30
40
20
20
20
20
20
20
20
20
20
20
20
20
40
C0
ENDCHAR
STARTCHAR approxequal
ENCODING 8776
SWIDTH 548 0
DWIDTH 9 0
BBX 9 7 0 2
BITMAP
7880
FF80
8F00
0000
7880
FF80
8F00
ENDCHAR
STARTCHAR notequal
ENCODING 8800
SWIDTH 548 0
DWIDTH 9 0
BBX 8 11 0 0
BITMAP
02
06
04
FF
FF
08
FF
FF
30
30
20
ENDCHAR
STARTCHAR equivalence
ENCODING 8801
SWIDTH 478 0
DWIDTH 8 0
BBX 6 8 1 1
BITMAP
FC
FC
00
FC
FC
00
FC
FC
ENDCHAR
STARTCHAR lessequal
ENCODING 8804
SWIDTH 548 0
DWIDTH 9 0
BBX 8 12 0 0
BITMAP
01
07
1E
78
E0
78
1E
07
01
00
FF
FF
ENDCHAR
STARTCHAR greaterequal
ENCODING 8805
SWIDTH 548 0
DWIDTH 9 0
BBX 8 12 0 0
BITMAP
C0
F0
3C
0F
03
0F
3C
F0
C0
00
FF
FF
ENDCHAR
STARTCHAR house
ENCODING 8962
SWIDTH 600 0
DWIDTH 10 0
BBX 7 9 1 0
BITMAP
10
28
44
42
82
82
82
82
FE
ENDCHAR
STARTCHAR revlogicalnot
ENCODING 8976
SWIDTH 479 0
DWIDTH 8 0
BBX 6 5 1 3
BITMAP
FC
FC
C0
C0
C0
ENDCHAR
STARTCHAR integraltp
ENCODING 8992
SWIDTH 604 0
DWIDTH 10 0
BBX 4 18 4 -4
BITMAP
20
F0
80
80
80
80
80
80
80
80
80
80
80
80
80
80
80
80
ENDCHAR
STARTCHAR integralbt
ENCODING 8993
SWIDTH 604 0
DWIDTH 10 0
BBX 3 18 2 -4
BITMAP
20
20
20
20
20
20
20
20
20
20
20
20
20
20
20
20
A0
C0
ENDCHAR
STARTCHAR SF100000
ENCODING 9472
SWIDTH 708 0
DWIDTH 11 0
BBX 12 2 0 4
BITMAP
FFF0
FFF0
ENDCHAR
STARTCHAR SF110000
ENCODING 9474
SWIDTH 615 0
DWIDTH 10 0
BBX 1 20 4 -5
BITMAP
80
80
80
80
80
80
80
80
80
80
80
80
80
80
80
80
80
80
80
80
ENDCHAR
STARTCHAR SF010000
ENCODING 9484
SWIDTH 708 0
DWIDTH 11 0
BBX 7 11 5 -5
BITMAP
FE
FE
80
80
80
80
80
80
80
80
80
ENDCHAR
STARTCHAR SF030000
ENCODING 9488
SWIDTH 708 0
DWIDTH 11 0
BBX 6 11 0 -5
BITMAP
FC
FC
04
04
04
04
04
04
04
04
04
ENDCHAR
STARTCHAR SF020000
ENCODING 9492
SWIDTH 708 0
DWIDTH 11 0
BBX 7 11 5 4
BITMAP
80
80
80
80
80
80
80
80
80
FE
FE
ENDCHAR
STARTCHAR SF040000
ENCODING 9496
SWIDTH 708 0
DWIDTH 11 0
BBX 6 11 0 4
BITMAP
04
04
04
04
04
04
04
04
04
FC
FC
ENDCHAR
STARTCHAR SF080000
ENCODING 9500
SWIDTH 708 0
DWIDTH 11 0
BBX 7 20 5 -5
BITMAP
80
80
80
80
80
80
80
80
80
FE
FE
80
80
80
80
80
80
80
80
80
ENDCHAR
STARTCHAR SF090000
ENCODING 9508
SWIDTH 708 0
DWIDTH 11 0
BBX 6 20 0 -5
BITMAP
04
04
04
04
04
04
04
04
04
FC
FC
04
04
04
04
04
04
04
04
04
ENDCHAR
STARTCHAR SF060000
ENCODING 9516
SWIDTH 708 0
DWIDTH 11 0
BBX 12 11 0 -5
BITMAP
FFF0
FFF0
0400
0400
0400
0400
0400
0400
0400
0400
0400
ENDCHAR
STARTCHAR SF070000
ENCODING 9524
SWIDTH 708 0
DWIDTH 11 0
BBX 12 11 0 4
BITMAP
0400
0400
0400
0400
0400
0400
0400
0400
0400
FFF0
FFF0
ENDCHAR
STARTCHAR SF050000
ENCODING 9532
SWIDTH 708 0
DWIDTH 11 0
BBX 12 20 0 -5
BITMAP
0400
0400
0400
0400
0400
0400
0400
0400
0400
FFF0
FFF0
0400
0400
0400
0400
0400
0400
0400
0400
0400
ENDCHAR
STARTCHAR SF430000
ENCODING 9552
SWIDTH 708 0
DWIDTH 11 0
BBX 12 4 0 3
BITMAP
FFF0
0000
0000
FFF0
ENDCHAR
STARTCHAR SF240000
ENCODING 9553
SWIDTH 708 0
DWIDTH 11 0
BBX 4 20 0 -5
BITMAP
90
90
90
90
90
90
90
90
90
90
90
90
90
90
90
90
90
90
90
90
ENDCHAR
STARTCHAR SF510000
ENCODING 9554
SWIDTH 708 0
DWIDTH 11 0
BBX 7 12 0 -5
BITMAP
FE
80
80
FE
80
80
80
80
80
80
80
80
ENDCHAR
STARTCHAR SF520000
ENCODING 9555
SWIDTH 708 0
DWIDTH 11 0
BBX 8 11 0 -5
BITMAP
FF
FF
90
90
90
90
90
90
90
90
90
ENDCHAR
STARTCHAR SF390000
ENCODING 9556
SWIDTH 708 0
DWIDTH 11 0
BBX 8 12 0 -5
BITMAP
FF
80
80
9F
90
90
90
90
90
90
90
90
ENDCHAR
STARTCHAR SF220000
ENCODING 9557
SWIDTH 708 0
DWIDTH 11 0
BBX 7 12 0 -5
BITMAP
FE
06
06
FE
06
06
06
06
06
06
06
06
ENDCHAR
STARTCHAR SF210000
ENCODING 9558
SWIDTH 708 0
DWIDTH 11 0
BBX 8 11 0 -5
BITMAP
FF
FF
09
09
09
09
09
09
09
09
09
ENDCHAR
STARTCHAR SF250000
ENCODING 9559
SWIDTH 708 0
DWIDTH 11 0
BBX 8 12 0 -5
BITMAP
FF
01
01
F9
09
09
09
09
09
09
09
09
ENDCHAR
STARTCHAR SF500000
ENCODING 9560
SWIDTH 708 0
DWIDTH 11 0
BBX 7 12 0 3
BITMAP
80
80
80
80
80
80
80
80
FE
80
80
FE
ENDCHAR
STARTCHAR SF490000
ENCODING 9561
SWIDTH 708 0
DWIDTH 11 0
BBX 8 11 0 4
BITMAP
90
90
90
90
90
90
90
90
90
FF
FF
ENDCHAR
STARTCHAR SF380000
ENCODING 9562
SWIDTH 708 0
DWIDTH 11 0
BBX 8 12 0 3
BITMAP
90
90
90
90
90
90
90
90
9F
80
80
FF
ENDCHAR
STARTCHAR SF280000
ENCODING 9563
SWIDTH 708 0
DWIDTH 11 0
BBX 7 12 0 3
BITMAP
06
06
06
06
06
06
06
06
FE
06
06
FE
ENDCHAR
STARTCHAR SF270000
ENCODING 9564
SWIDTH 708 0
DWIDTH 11 0
BBX 8 11 0 4
BITMAP
09
09
09
09
09
09
09
09
09
FF
FF
ENDCHAR
STARTCHAR SF260000
ENCODING 9565
SWIDTH 708 0
DWIDTH 11 0
BBX 8 12 0 3
BITMAP
09
09
09
09
09
09
09
09
F9
01
01
FF
ENDCHAR
STARTCHAR SF360000
ENCODING 9566
SWIDTH 708 0
DWIDTH 11 0
BBX 7 20 0 -5
BITMAP
80
80
80
80
80
80
80
80
FE
80
80
FE
80
80
80
80
80
80
80
80
ENDCHAR
STARTCHAR SF370000
ENCODING 9567
SWIDTH 708 0
DWIDTH 11 0
BBX 8 20 0 -5
BITMAP
90
90
90
90
90
90
90
90
90
9F
9F
90
90
90
90
90
90
90
90
90
ENDCHAR
STARTCHAR SF420000
ENCODING 9568
SWIDTH 708 0
DWIDTH 11 0
BBX 8 20 0 -5
BITMAP
90
90
90
90
90
90
90
90
9F
80
80
9F
90
90
90
90
90
90
90
90
ENDCHAR
STARTCHAR SF190000
ENCODING 9569
SWIDTH 708 0
DWIDTH 11 0
BBX 7 20 0 -5
BITMAP
06
06
06
06
06
06
06
06
FE
06
06
FE
06
06
06
06
06
06
06
06
ENDCHAR
STARTCHAR SF200000
ENCODING 9570
SWIDTH 708 0
DWIDTH 11 0
BBX 8 20 0 -5
BITMAP
09
09
09
09
09
09
09
09
09
F9
F9
09
09
09
09
09
09
09
09
09
ENDCHAR
STARTCHAR SF230000
ENCODING 9571
SWIDTH 708 0
DWIDTH 11 0
BBX 8 20 0 -5
BITMAP
09
09
09
09
09
09
09
09
F9
01
01
F9
09
09
09
09
09
09
09
09
ENDCHAR
STARTCHAR SF470000
ENCODING 9572
SWIDTH 708 0
DWIDTH 11 0
BBX 12 12 0 -5
BITMAP
FFF0
0000
0000
FFF0
0600
0600
0600
0600
0600
0600
0600
0600
ENDCHAR
STARTCHAR SF480000
ENCODING 9573
SWIDTH 708 0
DWIDTH 11 0
BBX 12 11 0 -5
BITMAP
FFF0
FFF0
0900
0900
0900
0900
0900
0900
0900
0900
0900
ENDCHAR
STARTCHAR SF410000
ENCODING 9574
SWIDTH 708 0
DWIDTH 11 0
BBX 12 12 0 -5
BITMAP
FFF0
0000
0000
F9F0
0900
0900
0900
0900
0900
0900
0900
0900
ENDCHAR
STARTCHAR SF450000
ENCODING 9575
SWIDTH 708 0
DWIDTH 11 0
BBX 12 12 0 3
BITMAP
0600
0600
0600
0600
0600
0600
0600
0600
FFF0
0000
0000
FFF0
ENDCHAR
STARTCHAR SF460000
ENCODING 9576
SWIDTH 708 0
DWIDTH 11 0
BBX 12 11 0 4
BITMAP
0900
0900
0900
0900
0900
0900
0900
0900
0900
FFF0
FFF0
ENDCHAR
STARTCHAR SF400000
ENCODING 9577
SWIDTH 708 0
DWIDTH 11 0
BBX 12 12 0 3
BITMAP
0900
0900
0900
0900
0900
0900
0900
0900
F9F0
0000
0000
FFF0
ENDCHAR
STARTCHAR SF540000
ENCODING 9578
SWIDTH 708 0
DWIDTH 11 0
BBX 12 20 0 -5
BITMAP
0600
0600
0600
0600
0600
0600
0600
0600
FFF0
0600
0600
FFF0
0600
0600
0600
0600
0600
0600
0600
0600
ENDCHAR
STARTCHAR SF530000
ENCODING 9579
SWIDTH 708 0
DWIDTH 11 0
BBX 12 20 0 -5
BITMAP
0900
0900
0900
0900
0900
0900
0900
0900
0900
FFF0
FFF0
0900
0900
0900
0900
0900
0900
0900
0900
0900
ENDCHAR
STARTCHAR SF440000
ENCODING 9580
SWIDTH 708 0
DWIDTH 11 0
BBX 12 20 0 -5
BITMAP
0900
0900
0900
0900
0900
0900
0900
0900
F9F0
0000
0000
F9F0
0900
0900
0900
0900
0900
0900
0900
0900
ENDCHAR
STARTCHAR upblock
ENCODING 9600
SWIDTH 708 0
DWIDTH 11 0
BBX 12 10 0 5
BITMAP
FFF0
FFF0
FFF0
FFF0
FFF0
FFF0
FFF0
FFF0
FFF0
FFF0
ENDCHAR
STARTCHAR dnblock
ENCODING 9604
SWIDTH 708 0
DWIDTH 11 0
BBX 12 10 0 -5
BITMAP
FFF0
FFF0
FFF0
FFF0
FFF0
FFF0
FFF0
FFF0
FFF0
FFF0
ENDCHAR
STARTCHAR block
ENCODING 9608
SWIDTH 708 0
DWIDTH 11 0
BBX 12 20 0 -5
BITMAP
FFF0
FFF0
FFF0
FFF0
FFF0
FFF0
FFF0
FFF0
FFF0
FFF0
FFF0
FFF0
FFF0
FFF0
FFF0
FFF0
FFF0
FFF0
FFF0
FFF0
ENDCHAR
STARTCHAR lfblock
ENCODING 9612
SWIDTH 708 0
DWIDTH 11 0
BBX 6 20 0 -5
BITMAP
FC
FC
FC
FC
FC
FC
FC
FC
FC
FC
FC
FC
FC
FC
FC
FC
FC
FC
FC
FC
ENDCHAR
STARTCHAR rtblock
ENCODING 9616
SWIDTH 708 0
DWIDTH 11 0
BBX 6 20 0 -5
BITMAP
FC
FC
FC
FC
FC
FC
FC
FC
FC
FC
FC
FC
FC
FC
FC
FC
FC
FC
FC
FC
ENDCHAR
STARTCHAR ltshade
ENCODING 9617
SWIDTH 708 0
DWIDTH 11 0
BBX 11 19 1 -4
BITMAP
8880
0000
2220
0000
8880
0000
2220
0000
8880
0000
2220
0000
8880
0000
2220
0000
8880
0000
2220
ENDCHAR
STARTCHAR shade
ENCODING 9618
SWIDTH 708 0
DWIDTH 11 0
BBX 12 19 0 -4
BITMAP
5550
0000
AAA0
0000
5550
0000
AAA0
0000
5550
0000
AAA0
0000
5550
0000
AAA0
0000
5550
0000
AAA0
ENDCHAR
STARTCHAR dkshade
ENCODING 9619
SWIDTH 729 0
DWIDTH 12 0
BBX 12 20 0 -5
BITMAP
5550
FFF0
AAA0
FFF0
5550
FFF0
AAA0
FFF0
5550
FFF0
AAA0
FFF0
5550
FFF0
AAA0
FFF0
5550
FFF0
AAA0
FFF0
ENDCHAR
STARTCHAR filledbox
ENCODING 9632
SWIDTH 604 0
DWIDTH 10 0
BBX 7 7 0 0
BITMAP
FE
FE
FE
FE
FE
FE
FE
ENDCHAR
STARTCHAR H22073
ENCODING 9633
SWIDTH 604 0
DWIDTH 10 0
BBX 8 7 1 0
BITMAP
FF
81
81
81
81
81
FF
ENDCHAR
STARTCHAR H18543
ENCODING 9642
SWIDTH 354 0
DWIDTH 6 0
BBX 4 4 1 3
BITMAP
F0
F0
F0
F0
ENDCHAR
STARTCHAR H18551
ENCODING 9643
SWIDTH 354 0
DWIDTH 6 0
BBX 4 4 1 3
BITMAP
F0
90
90
F0
ENDCHAR
STARTCHAR filledrect
ENCODING 9644
SWIDTH 1000 0
DWIDTH 16 0
BBX 16 4 0 2
BITMAP
FFFF
FFFF
FFFF
FFFF
ENDCHAR
STARTCHAR triagup
ENCODING 9650
SWIDTH 989 0
DWIDTH 16 0
BBX 11 11 0 0
BITMAP
0400
0400
0E00
0E00
1F00
1F00
3F80
3F80
7FC0
7FC0
FFE0
ENDCHAR
STARTCHAR triagrt
ENCODING 9658
SWIDTH 989 0
DWIDTH 16 0
BBX 11 11 0 0
BITMAP
8000
E000
F800
FE00
FF80
FFE0
FFC0
FF00
FC00
F000
C000
ENDCHAR
STARTCHAR triagdn
ENCODING 9660
SWIDTH 989 0
DWIDTH 16 0
BBX 11 11 0 0
BITMAP
FFE0
7FC0
7FC0
3F80
3F80
1F00
1F00
0E00
0E00
0400
0400
ENDCHAR
STARTCHAR triaglf
ENCODING 9668
SWIDTH 989 0
DWIDTH 16 0
BBX 12 11 2 0
BITMAP
0030
00F0
03F0
0FF0
3FF0
FFF0
3FF0
0FF0
03F0
00F0
0030
ENDCHAR
STARTCHAR lozenge
ENCODING 9674
SWIDTH 494 0
DWIDTH 8 0
BBX 8 11 0 0
BITMAP
18
28
24
44
42
81
42
44
24
28
18
ENDCHAR
STARTCHAR circle
ENCODING 9675
SWIDTH 604 0
DWIDTH 10 0
BBX 7 7 0 1
BITMAP
38
C4
82
82
82
84
78
ENDCHAR
STARTCHAR H18533
ENCODING 9679
SWIDTH 604 0
DWIDTH 10 0
BBX 7 7 1 1
BITMAP
3C
7E
7E
FE
7E
7E
3C
ENDCHAR
STARTCHAR invbullet
ENCODING 9688
SWIDTH 604 0
DWIDTH 10 0
BBX 8 8 0 0
BITMAP
FF
FF
FF
C7
C7
E7
FF
FF
ENDCHAR
STARTCHAR invcircle
ENCODING 9689
SWIDTH 604 0
DWIDTH 10 0
BBX 9 9 0 0
BITMAP
FF80
E380
FF80
BE80
BE80
BE80
FF80
E380
FF80
ENDCHAR
STARTCHAR openbullet
ENCODING 9702
SWIDTH 354 0
DWIDTH 6 0
BBX 4 4 1 3
BITMAP
E0
90
90
60
ENDCHAR
STARTCHAR smileface
ENCODING 9786
SWIDTH 1020 0
DWIDTH 16 0
BBX 10 10 3 -1
BITMAP
1E00
2180
4040
9140
9040
8040
9040
4E80
2080
1F00
ENDCHAR
STARTCHAR invsmileface
ENCODING 9787
SWIDTH 1052 0
DWIDTH 17 0
BBX 10 10 3 -1
BITMAP
1F00
3F80
7FC0
6EC0
EEC0
FFC0
6EC0
71C0
3F80
1E00
ENDCHAR
STARTCHAR sun
ENCODING 9788
SWIDTH 916 0
DWIDTH 15 0
BBX 14 15 0 -2
BITMAP
0100
0100
2108
1790
0860
1020
2010
E01C
2010
1020
1020
1ED0
2108
0100
0100
ENDCHAR
STARTCHAR female
ENCODING 9792
SWIDTH 750 0
DWIDTH 12 0
BBX 8 14 2 -2
BITMAP
18
66
81
81
81
81
82
42
3C
10
10
10
7E
10
ENDCHAR
STARTCHAR male
ENCODING 9794
SWIDTH 750 0
DWIDTH 12 0
BBX 10 15 1 -2
BITMAP
0080
0380
0D80
0240
0240
0200
0400
3C00
C200
8100
8100
8100
8100
8200
7C00
ENDCHAR
STARTCHAR spade
ENCODING 9824
SWIDTH 531 0
DWIDTH 9 0
BBX 8 9 0 0
BITMAP
10
18
3C
7E
FF
FF
76
10
3C
ENDCHAR
STARTCHAR club
ENCODING 9827
SWIDTH 656 0
DWIDTH 11 0
BBX 10 10 0 0
BITMAP
0C00
1E00
1E00
1E00
7FC0
FFC0
7BC0
7580
0C00
1F00
ENDCHAR
STARTCHAR heart
ENCODING 9829
SWIDTH 593 0
DWIDTH 10 0
BBX 9 9 0 1
BITMAP
6200
F700
FF80
FF00
7F00
3E00
3C00
1C00
0800
ENDCHAR
STARTCHAR diamond
ENCODING 9830
SWIDTH 510 0
DWIDTH 8 0
BBX 7 9 0 0
BITMAP
10
38
7C
7E
FE
7C
38
38
10
ENDCHAR
STARTCHAR musicalnote
ENCODING 9834
SWIDTH 500 0
DWIDTH 8 0
BBX 8 11 0 0
BITMAP
0C
0E
0B
09
08
08
08
08
78
F8
70
ENDCHAR
STARTCHAR musicalnotedbl
ENCODING 9835
SWIDTH 750 0
DWIDTH 12 0
BBX 9 13 1 -1
BITMAP
0080
0780
1F80
1880
1080
1080
1080
1080
1380
7780
F780
F000
E000
ENDCHAR
STARTCHAR fi
ENCODING 64257
SWIDTH 500 0
DWIDTH 8 0
BBX 7 11 0 0
BITMAP
3E
7E
60
F6
F6
66
66
66
66
66
66
ENDCHAR
STARTCHAR fl
ENCODING 64258
SWIDTH 500 0
DWIDTH 8 0
BBX 7 11 0 0
BITMAP
3E
7E
66
F6
F6
66
66
66
66
66
66
ENDCHAR
STARTCHAR .notdef
ENCODING 64260
SWIDTH 228 0
DWIDTH 4 0
BBX 3 10 0 0
BITMAP
E0
A0
A0
A0
A0
A0
A0
A0
A0
E0
ENDCHAR
STARTCHAR commaaccent
ENCODING 64261
SWIDTH 272 0
DWIDTH 4 0
BBX 2 4 1 -5
BITMAP
C0
C0
40
80
ENDCHAR
STARTCHAR undercommaaccent
ENCODING 64262
SWIDTH 272 0
DWIDTH 4 0
BBX 4 3 0 -3
BITMAP
60
10
E0
ENDCHAR
STARTCHAR glyph663
ENCODING 64263
SWIDTH 228 0
DWIDTH 4 0
BBX 3 14 1 0
BITMAP
60
C0
00
C0
C0
00
C0
C0
C0
C0
C0
C0
C0
C0
ENDCHAR
ENDFONT
